<mxfile host="app.diagrams.net" agent="Mozilla/5.0 (Windows NT 10.0; Win64; x64) AppleWebKit/537.36 (KHTML, like Gecko) Chrome/131.0.0.0 Safari/537.36" version="26.0.5" pages="3">
  <diagram id="C5RBs43oDa-KdzZeNtuy" name="UML">
    <mxGraphModel grid="1" page="1" gridSize="10" guides="1" tooltips="1" connect="1" arrows="1" fold="1" pageScale="1" pageWidth="1169" pageHeight="827" math="0" shadow="0">
      <root>
        <mxCell id="WIyWlLk6GJQsqaUBKTNV-0" />
        <mxCell id="WIyWlLk6GJQsqaUBKTNV-1" parent="WIyWlLk6GJQsqaUBKTNV-0" />
        <mxCell id="inzOm00T93IO3sTjsSdQ-36" style="edgeStyle=orthogonalEdgeStyle;rounded=0;orthogonalLoop=1;jettySize=auto;html=1;exitX=0;exitY=0.25;exitDx=0;exitDy=0;entryX=0;entryY=0.5;entryDx=0;entryDy=0;endArrow=none;endFill=0;" edge="1" parent="WIyWlLk6GJQsqaUBKTNV-1" source="inzOm00T93IO3sTjsSdQ-0" target="inzOm00T93IO3sTjsSdQ-14">
          <mxGeometry relative="1" as="geometry">
            <Array as="points">
              <mxPoint x="105" y="313" />
              <mxPoint x="40" y="313" />
              <mxPoint x="40" y="665" />
            </Array>
          </mxGeometry>
        </mxCell>
        <mxCell id="fewOGnNmHkrm9TvKXEX_-12" value="0..1" style="edgeLabel;html=1;align=center;verticalAlign=middle;resizable=0;points=[];" connectable="0" vertex="1" parent="inzOm00T93IO3sTjsSdQ-36">
          <mxGeometry x="0.8977" y="1" relative="1" as="geometry">
            <mxPoint as="offset" />
          </mxGeometry>
        </mxCell>
        <mxCell id="fewOGnNmHkrm9TvKXEX_-13" value="1..1" style="edgeLabel;html=1;align=center;verticalAlign=middle;resizable=0;points=[];" connectable="0" vertex="1" parent="inzOm00T93IO3sTjsSdQ-36">
          <mxGeometry x="-0.8895" relative="1" as="geometry">
            <mxPoint x="-10" as="offset" />
          </mxGeometry>
        </mxCell>
        <mxCell id="fewOGnNmHkrm9TvKXEX_-14" value="buys V" style="edgeLabel;html=1;align=center;verticalAlign=middle;resizable=0;points=[];" connectable="0" vertex="1" parent="inzOm00T93IO3sTjsSdQ-36">
          <mxGeometry x="0.0079" y="-1" relative="1" as="geometry">
            <mxPoint y="-1" as="offset" />
          </mxGeometry>
        </mxCell>
        <mxCell id="RQm-4FzYlNGf1p6Lvn1E-6" style="edgeStyle=orthogonalEdgeStyle;rounded=0;orthogonalLoop=1;jettySize=auto;html=1;exitX=0.5;exitY=1;exitDx=0;exitDy=0;entryX=0;entryY=0.25;entryDx=0;entryDy=0;endArrow=none;endFill=0;" edge="1" parent="WIyWlLk6GJQsqaUBKTNV-1" source="inzOm00T93IO3sTjsSdQ-0" target="RQm-4FzYlNGf1p6Lvn1E-0">
          <mxGeometry relative="1" as="geometry" />
        </mxCell>
        <mxCell id="RQm-4FzYlNGf1p6Lvn1E-8" value="0..*" style="edgeLabel;html=1;align=center;verticalAlign=middle;resizable=0;points=[];" connectable="0" vertex="1" parent="RQm-4FzYlNGf1p6Lvn1E-6">
          <mxGeometry x="0.7755" y="1" relative="1" as="geometry">
            <mxPoint as="offset" />
          </mxGeometry>
        </mxCell>
        <mxCell id="RQm-4FzYlNGf1p6Lvn1E-9" value="1..1" style="edgeLabel;html=1;align=center;verticalAlign=middle;resizable=0;points=[];" connectable="0" vertex="1" parent="RQm-4FzYlNGf1p6Lvn1E-6">
          <mxGeometry x="-0.861" relative="1" as="geometry">
            <mxPoint y="2" as="offset" />
          </mxGeometry>
        </mxCell>
        <mxCell id="JKZYkjQcErZYr4IZJuKD-7" value="goes on V" style="edgeLabel;html=1;align=center;verticalAlign=middle;resizable=0;points=[];" connectable="0" vertex="1" parent="RQm-4FzYlNGf1p6Lvn1E-6">
          <mxGeometry x="-0.3481" relative="1" as="geometry">
            <mxPoint as="offset" />
          </mxGeometry>
        </mxCell>
        <mxCell id="inzOm00T93IO3sTjsSdQ-0" value="Customer" style="swimlane;fontStyle=0;childLayout=stackLayout;horizontal=1;startSize=26;fillColor=none;horizontalStack=0;resizeParent=1;resizeParentMax=0;resizeLast=0;collapsible=1;marginBottom=0;whiteSpace=wrap;html=1;" vertex="1" parent="WIyWlLk6GJQsqaUBKTNV-1">
          <mxGeometry x="105" y="269" width="200" height="130" as="geometry" />
        </mxCell>
        <mxCell id="inzOm00T93IO3sTjsSdQ-1" value="+ customer_id: BigInt" style="text;strokeColor=none;fillColor=none;align=left;verticalAlign=top;spacingLeft=4;spacingRight=4;overflow=hidden;rotatable=0;points=[[0,0.5],[1,0.5]];portConstraint=eastwest;whiteSpace=wrap;html=1;" vertex="1" parent="inzOm00T93IO3sTjsSdQ-0">
          <mxGeometry y="26" width="200" height="26" as="geometry" />
        </mxCell>
        <mxCell id="inzOm00T93IO3sTjsSdQ-2" value="+ first_name: string" style="text;strokeColor=none;fillColor=none;align=left;verticalAlign=top;spacingLeft=4;spacingRight=4;overflow=hidden;rotatable=0;points=[[0,0.5],[1,0.5]];portConstraint=eastwest;whiteSpace=wrap;html=1;" vertex="1" parent="inzOm00T93IO3sTjsSdQ-0">
          <mxGeometry y="52" width="200" height="26" as="geometry" />
        </mxCell>
        <mxCell id="inzOm00T93IO3sTjsSdQ-29" value="+ last_name: string" style="text;strokeColor=none;fillColor=none;align=left;verticalAlign=top;spacingLeft=4;spacingRight=4;overflow=hidden;rotatable=0;points=[[0,0.5],[1,0.5]];portConstraint=eastwest;whiteSpace=wrap;html=1;" vertex="1" parent="inzOm00T93IO3sTjsSdQ-0">
          <mxGeometry y="78" width="200" height="26" as="geometry" />
        </mxCell>
        <mxCell id="inzOm00T93IO3sTjsSdQ-3" value="+ customer_type: CustomerType" style="text;strokeColor=none;fillColor=none;align=left;verticalAlign=top;spacingLeft=4;spacingRight=4;overflow=hidden;rotatable=0;points=[[0,0.5],[1,0.5]];portConstraint=eastwest;whiteSpace=wrap;html=1;" vertex="1" parent="inzOm00T93IO3sTjsSdQ-0">
          <mxGeometry y="104" width="200" height="26" as="geometry" />
        </mxCell>
        <mxCell id="inzOm00T93IO3sTjsSdQ-4" value="Metro Stop" style="swimlane;fontStyle=0;childLayout=stackLayout;horizontal=1;startSize=26;fillColor=none;horizontalStack=0;resizeParent=1;resizeParentMax=0;resizeLast=0;collapsible=1;marginBottom=0;whiteSpace=wrap;html=1;" vertex="1" parent="WIyWlLk6GJQsqaUBKTNV-1">
          <mxGeometry x="1010" y="269" width="140" height="52" as="geometry" />
        </mxCell>
        <mxCell id="inzOm00T93IO3sTjsSdQ-5" value="+ name: string" style="text;strokeColor=none;fillColor=none;align=left;verticalAlign=top;spacingLeft=4;spacingRight=4;overflow=hidden;rotatable=0;points=[[0,0.5],[1,0.5]];portConstraint=eastwest;whiteSpace=wrap;html=1;" vertex="1" parent="inzOm00T93IO3sTjsSdQ-4">
          <mxGeometry y="26" width="140" height="26" as="geometry" />
        </mxCell>
        <mxCell id="inzOm00T93IO3sTjsSdQ-39" style="edgeStyle=orthogonalEdgeStyle;rounded=0;orthogonalLoop=1;jettySize=auto;html=1;exitX=1;exitY=0.25;exitDx=0;exitDy=0;endArrow=none;endFill=0;entryX=0.005;entryY=0.367;entryDx=0;entryDy=0;entryPerimeter=0;" edge="1" parent="WIyWlLk6GJQsqaUBKTNV-1" source="inzOm00T93IO3sTjsSdQ-8" target="inzOm00T93IO3sTjsSdQ-4">
          <mxGeometry relative="1" as="geometry">
            <mxPoint x="1002" y="282" as="targetPoint" />
            <Array as="points">
              <mxPoint x="933" y="289" />
            </Array>
          </mxGeometry>
        </mxCell>
        <mxCell id="fewOGnNmHkrm9TvKXEX_-21" value="has &amp;gt;" style="edgeLabel;html=1;align=center;verticalAlign=middle;resizable=0;points=[];" connectable="0" vertex="1" parent="inzOm00T93IO3sTjsSdQ-39">
          <mxGeometry x="-0.0828" relative="1" as="geometry">
            <mxPoint x="9" y="-8" as="offset" />
          </mxGeometry>
        </mxCell>
        <mxCell id="fewOGnNmHkrm9TvKXEX_-22" value="1..*" style="edgeLabel;html=1;align=center;verticalAlign=middle;resizable=0;points=[];" connectable="0" vertex="1" parent="inzOm00T93IO3sTjsSdQ-39">
          <mxGeometry x="0.902" y="-1" relative="1" as="geometry">
            <mxPoint x="-13" y="10" as="offset" />
          </mxGeometry>
        </mxCell>
        <mxCell id="fewOGnNmHkrm9TvKXEX_-23" value="1..*" style="edgeLabel;html=1;align=center;verticalAlign=middle;resizable=0;points=[];" connectable="0" vertex="1" parent="inzOm00T93IO3sTjsSdQ-39">
          <mxGeometry x="-0.9287" y="1" relative="1" as="geometry">
            <mxPoint x="9" y="12" as="offset" />
          </mxGeometry>
        </mxCell>
        <mxCell id="inzOm00T93IO3sTjsSdQ-8" value="Metro Line" style="swimlane;fontStyle=0;childLayout=stackLayout;horizontal=1;startSize=26;fillColor=none;horizontalStack=0;resizeParent=1;resizeParentMax=0;resizeLast=0;collapsible=1;marginBottom=0;whiteSpace=wrap;html=1;" vertex="1" parent="WIyWlLk6GJQsqaUBKTNV-1">
          <mxGeometry x="722" y="269" width="143" height="78" as="geometry" />
        </mxCell>
        <mxCell id="inzOm00T93IO3sTjsSdQ-9" value="+ line_id: int" style="text;strokeColor=none;fillColor=none;align=left;verticalAlign=top;spacingLeft=4;spacingRight=4;overflow=hidden;rotatable=0;points=[[0,0.5],[1,0.5]];portConstraint=eastwest;whiteSpace=wrap;html=1;" vertex="1" parent="inzOm00T93IO3sTjsSdQ-8">
          <mxGeometry y="26" width="143" height="26" as="geometry" />
        </mxCell>
        <mxCell id="inzOm00T93IO3sTjsSdQ-10" value="+ stop_quantity int" style="text;strokeColor=none;fillColor=none;align=left;verticalAlign=top;spacingLeft=4;spacingRight=4;overflow=hidden;rotatable=0;points=[[0,0.5],[1,0.5]];portConstraint=eastwest;whiteSpace=wrap;html=1;" vertex="1" parent="inzOm00T93IO3sTjsSdQ-8">
          <mxGeometry y="52" width="143" height="26" as="geometry" />
        </mxCell>
        <mxCell id="inzOm00T93IO3sTjsSdQ-12" value="Ticket" style="swimlane;fontStyle=0;childLayout=stackLayout;horizontal=1;startSize=26;fillColor=none;horizontalStack=0;resizeParent=1;resizeParentMax=0;resizeLast=0;collapsible=1;marginBottom=0;whiteSpace=wrap;html=1;" vertex="1" parent="WIyWlLk6GJQsqaUBKTNV-1">
          <mxGeometry x="118" y="600" width="140" height="130" as="geometry" />
        </mxCell>
        <mxCell id="inzOm00T93IO3sTjsSdQ-13" value="+ ticket_id: int" style="text;strokeColor=none;fillColor=none;align=left;verticalAlign=top;spacingLeft=4;spacingRight=4;overflow=hidden;rotatable=0;points=[[0,0.5],[1,0.5]];portConstraint=eastwest;whiteSpace=wrap;html=1;" vertex="1" parent="inzOm00T93IO3sTjsSdQ-12">
          <mxGeometry y="26" width="140" height="26" as="geometry" />
        </mxCell>
        <mxCell id="inzOm00T93IO3sTjsSdQ-14" value="+ type: TicketType" style="text;strokeColor=none;fillColor=none;align=left;verticalAlign=top;spacingLeft=4;spacingRight=4;overflow=hidden;rotatable=0;points=[[0,0.5],[1,0.5]];portConstraint=eastwest;whiteSpace=wrap;html=1;" vertex="1" parent="inzOm00T93IO3sTjsSdQ-12">
          <mxGeometry y="52" width="140" height="26" as="geometry" />
        </mxCell>
        <mxCell id="inzOm00T93IO3sTjsSdQ-15" value="+ price: float" style="text;strokeColor=none;fillColor=none;align=left;verticalAlign=top;spacingLeft=4;spacingRight=4;overflow=hidden;rotatable=0;points=[[0,0.5],[1,0.5]];portConstraint=eastwest;whiteSpace=wrap;html=1;" vertex="1" parent="inzOm00T93IO3sTjsSdQ-12">
          <mxGeometry y="78" width="140" height="26" as="geometry" />
        </mxCell>
        <mxCell id="fewOGnNmHkrm9TvKXEX_-8" value="+ expiry: date" style="text;strokeColor=none;fillColor=none;align=left;verticalAlign=top;spacingLeft=4;spacingRight=4;overflow=hidden;rotatable=0;points=[[0,0.5],[1,0.5]];portConstraint=eastwest;whiteSpace=wrap;html=1;" vertex="1" parent="inzOm00T93IO3sTjsSdQ-12">
          <mxGeometry y="104" width="140" height="26" as="geometry" />
        </mxCell>
        <mxCell id="inzOm00T93IO3sTjsSdQ-24" value="«enumeration»&lt;br&gt;&lt;b&gt;CustomerType&lt;/b&gt;" style="swimlane;fontStyle=0;childLayout=stackLayout;horizontal=1;startSize=40;fillColor=none;horizontalStack=0;resizeParent=1;resizeParentMax=0;resizeLast=0;collapsible=1;marginBottom=0;whiteSpace=wrap;html=1;" vertex="1" parent="WIyWlLk6GJQsqaUBKTNV-1">
          <mxGeometry x="280" y="64" width="150" height="144" as="geometry" />
        </mxCell>
        <mxCell id="inzOm00T93IO3sTjsSdQ-25" value="Regular" style="text;strokeColor=none;fillColor=none;align=left;verticalAlign=top;spacingLeft=4;spacingRight=4;overflow=hidden;rotatable=0;points=[[0,0.5],[1,0.5]];portConstraint=eastwest;whiteSpace=wrap;html=1;" vertex="1" parent="inzOm00T93IO3sTjsSdQ-24">
          <mxGeometry y="40" width="150" height="26" as="geometry" />
        </mxCell>
        <mxCell id="inzOm00T93IO3sTjsSdQ-26" value="Children&amp;nbsp;" style="text;strokeColor=none;fillColor=none;align=left;verticalAlign=top;spacingLeft=4;spacingRight=4;overflow=hidden;rotatable=0;points=[[0,0.5],[1,0.5]];portConstraint=eastwest;whiteSpace=wrap;html=1;" vertex="1" parent="inzOm00T93IO3sTjsSdQ-24">
          <mxGeometry y="66" width="150" height="26" as="geometry" />
        </mxCell>
        <mxCell id="inzOm00T93IO3sTjsSdQ-27" value="Student" style="text;strokeColor=none;fillColor=none;align=left;verticalAlign=top;spacingLeft=4;spacingRight=4;overflow=hidden;rotatable=0;points=[[0,0.5],[1,0.5]];portConstraint=eastwest;whiteSpace=wrap;html=1;" vertex="1" parent="inzOm00T93IO3sTjsSdQ-24">
          <mxGeometry y="92" width="150" height="26" as="geometry" />
        </mxCell>
        <mxCell id="inzOm00T93IO3sTjsSdQ-28" value="Elders" style="text;strokeColor=none;fillColor=none;align=left;verticalAlign=top;spacingLeft=4;spacingRight=4;overflow=hidden;rotatable=0;points=[[0,0.5],[1,0.5]];portConstraint=eastwest;whiteSpace=wrap;html=1;" vertex="1" parent="inzOm00T93IO3sTjsSdQ-24">
          <mxGeometry y="118" width="150" height="26" as="geometry" />
        </mxCell>
        <mxCell id="inzOm00T93IO3sTjsSdQ-30" value="«enumeration»&lt;br&gt;&lt;b&gt;TicketType&lt;/b&gt;" style="swimlane;fontStyle=0;childLayout=stackLayout;horizontal=1;startSize=40;fillColor=none;horizontalStack=0;resizeParent=1;resizeParentMax=0;resizeLast=0;collapsible=1;marginBottom=0;whiteSpace=wrap;html=1;" vertex="1" parent="WIyWlLk6GJQsqaUBKTNV-1">
          <mxGeometry x="80" y="64" width="150" height="118" as="geometry" />
        </mxCell>
        <mxCell id="inzOm00T93IO3sTjsSdQ-32" value="Round trip" style="text;strokeColor=none;fillColor=none;align=left;verticalAlign=top;spacingLeft=4;spacingRight=4;overflow=hidden;rotatable=0;points=[[0,0.5],[1,0.5]];portConstraint=eastwest;whiteSpace=wrap;html=1;" vertex="1" parent="inzOm00T93IO3sTjsSdQ-30">
          <mxGeometry y="40" width="150" height="26" as="geometry" />
        </mxCell>
        <mxCell id="inzOm00T93IO3sTjsSdQ-33" value="One way" style="text;strokeColor=none;fillColor=none;align=left;verticalAlign=top;spacingLeft=4;spacingRight=4;overflow=hidden;rotatable=0;points=[[0,0.5],[1,0.5]];portConstraint=eastwest;whiteSpace=wrap;html=1;" vertex="1" parent="inzOm00T93IO3sTjsSdQ-30">
          <mxGeometry y="66" width="150" height="26" as="geometry" />
        </mxCell>
        <mxCell id="inzOm00T93IO3sTjsSdQ-34" value="Monthly" style="text;strokeColor=none;fillColor=none;align=left;verticalAlign=top;spacingLeft=4;spacingRight=4;overflow=hidden;rotatable=0;points=[[0,0.5],[1,0.5]];portConstraint=eastwest;whiteSpace=wrap;html=1;" vertex="1" parent="inzOm00T93IO3sTjsSdQ-30">
          <mxGeometry y="92" width="150" height="26" as="geometry" />
        </mxCell>
        <mxCell id="fewOGnNmHkrm9TvKXEX_-0" value="Metro Trip" style="swimlane;fontStyle=0;childLayout=stackLayout;horizontal=1;startSize=26;fillColor=none;horizontalStack=0;resizeParent=1;resizeParentMax=0;resizeLast=0;collapsible=1;marginBottom=0;whiteSpace=wrap;html=1;" vertex="1" parent="WIyWlLk6GJQsqaUBKTNV-1">
          <mxGeometry x="571" y="470" width="140" height="78" as="geometry" />
        </mxCell>
        <mxCell id="fewOGnNmHkrm9TvKXEX_-45" value="+ departure_time: time" style="text;strokeColor=none;fillColor=none;align=left;verticalAlign=top;spacingLeft=4;spacingRight=4;overflow=hidden;rotatable=0;points=[[0,0.5],[1,0.5]];portConstraint=eastwest;whiteSpace=wrap;html=1;" vertex="1" parent="fewOGnNmHkrm9TvKXEX_-0">
          <mxGeometry y="26" width="140" height="26" as="geometry" />
        </mxCell>
        <mxCell id="_qCW6-xqt9tgSI5cdXN9-0" value="+ direction: int" style="text;strokeColor=none;fillColor=none;align=left;verticalAlign=top;spacingLeft=4;spacingRight=4;overflow=hidden;rotatable=0;points=[[0,0.5],[1,0.5]];portConstraint=eastwest;whiteSpace=wrap;html=1;" vertex="1" parent="fewOGnNmHkrm9TvKXEX_-0">
          <mxGeometry y="52" width="140" height="26" as="geometry" />
        </mxCell>
        <mxCell id="fewOGnNmHkrm9TvKXEX_-50" style="edgeStyle=orthogonalEdgeStyle;rounded=0;orthogonalLoop=1;jettySize=auto;html=1;endArrow=none;endFill=0;dashed=1;" edge="1" parent="WIyWlLk6GJQsqaUBKTNV-1" source="fewOGnNmHkrm9TvKXEX_-46">
          <mxGeometry relative="1" as="geometry">
            <mxPoint x="937" y="290" as="targetPoint" />
          </mxGeometry>
        </mxCell>
        <mxCell id="fewOGnNmHkrm9TvKXEX_-46" value="Stop List" style="swimlane;fontStyle=0;childLayout=stackLayout;horizontal=1;startSize=26;fillColor=none;horizontalStack=0;resizeParent=1;resizeParentMax=0;resizeLast=0;collapsible=1;marginBottom=0;whiteSpace=wrap;html=1;" vertex="1" parent="WIyWlLk6GJQsqaUBKTNV-1">
          <mxGeometry x="865" y="470" width="143" height="52" as="geometry" />
        </mxCell>
        <mxCell id="_qCW6-xqt9tgSI5cdXN9-1" style="edgeStyle=orthogonalEdgeStyle;rounded=0;orthogonalLoop=1;jettySize=auto;html=1;exitX=1;exitY=0.25;exitDx=0;exitDy=0;entryX=-0.004;entryY=0.382;entryDx=0;entryDy=0;entryPerimeter=0;endArrow=none;endFill=0;" edge="1" parent="WIyWlLk6GJQsqaUBKTNV-1" source="fewOGnNmHkrm9TvKXEX_-0" target="fewOGnNmHkrm9TvKXEX_-46">
          <mxGeometry relative="1" as="geometry">
            <mxPoint x="692.0000000000002" y="489.5" as="sourcePoint" />
          </mxGeometry>
        </mxCell>
        <mxCell id="_qCW6-xqt9tgSI5cdXN9-2" value="runs through &amp;gt;" style="edgeLabel;html=1;align=center;verticalAlign=middle;resizable=0;points=[];" connectable="0" vertex="1" parent="_qCW6-xqt9tgSI5cdXN9-1">
          <mxGeometry x="0.0639" y="1" relative="1" as="geometry">
            <mxPoint y="-9" as="offset" />
          </mxGeometry>
        </mxCell>
        <mxCell id="_qCW6-xqt9tgSI5cdXN9-3" value="1..*" style="edgeLabel;html=1;align=center;verticalAlign=middle;resizable=0;points=[];" connectable="0" vertex="1" parent="_qCW6-xqt9tgSI5cdXN9-1">
          <mxGeometry x="-0.8825" relative="1" as="geometry">
            <mxPoint x="2" y="11" as="offset" />
          </mxGeometry>
        </mxCell>
        <mxCell id="_qCW6-xqt9tgSI5cdXN9-4" value="1..1" style="edgeLabel;html=1;align=center;verticalAlign=middle;resizable=0;points=[];" connectable="0" vertex="1" parent="_qCW6-xqt9tgSI5cdXN9-1">
          <mxGeometry x="0.8011" relative="1" as="geometry">
            <mxPoint y="10" as="offset" />
          </mxGeometry>
        </mxCell>
        <mxCell id="RQm-4FzYlNGf1p6Lvn1E-7" style="edgeStyle=orthogonalEdgeStyle;rounded=0;orthogonalLoop=1;jettySize=auto;html=1;exitX=1;exitY=0.25;exitDx=0;exitDy=0;entryX=0;entryY=0.25;entryDx=0;entryDy=0;endArrow=none;endFill=0;" edge="1" parent="WIyWlLk6GJQsqaUBKTNV-1" source="RQm-4FzYlNGf1p6Lvn1E-0" target="fewOGnNmHkrm9TvKXEX_-0">
          <mxGeometry relative="1" as="geometry" />
        </mxCell>
        <mxCell id="JKZYkjQcErZYr4IZJuKD-0" value="0..*" style="edgeLabel;html=1;align=center;verticalAlign=middle;resizable=0;points=[];" connectable="0" vertex="1" parent="RQm-4FzYlNGf1p6Lvn1E-7">
          <mxGeometry x="-0.7763" y="-1" relative="1" as="geometry">
            <mxPoint y="-12" as="offset" />
          </mxGeometry>
        </mxCell>
        <mxCell id="JKZYkjQcErZYr4IZJuKD-1" value="0..*" style="edgeLabel;html=1;align=center;verticalAlign=middle;resizable=0;points=[];" connectable="0" vertex="1" parent="RQm-4FzYlNGf1p6Lvn1E-7">
          <mxGeometry x="0.7893" y="3" relative="1" as="geometry">
            <mxPoint y="-7" as="offset" />
          </mxGeometry>
        </mxCell>
        <mxCell id="RQm-4FzYlNGf1p6Lvn1E-0" value="Customer Trip" style="swimlane;fontStyle=0;childLayout=stackLayout;horizontal=1;startSize=26;fillColor=none;horizontalStack=0;resizeParent=1;resizeParentMax=0;resizeLast=0;collapsible=1;marginBottom=0;whiteSpace=wrap;html=1;" vertex="1" parent="WIyWlLk6GJQsqaUBKTNV-1">
          <mxGeometry x="290" y="477" width="140" height="52" as="geometry" />
        </mxCell>
        <mxCell id="RQm-4FzYlNGf1p6Lvn1E-1" value="+ date: date" style="text;strokeColor=none;fillColor=none;align=left;verticalAlign=top;spacingLeft=4;spacingRight=4;overflow=hidden;rotatable=0;points=[[0,0.5],[1,0.5]];portConstraint=eastwest;whiteSpace=wrap;html=1;" vertex="1" parent="RQm-4FzYlNGf1p6Lvn1E-0">
          <mxGeometry y="26" width="140" height="26" as="geometry" />
        </mxCell>
        <mxCell id="JKZYkjQcErZYr4IZJuKD-6" style="edgeStyle=orthogonalEdgeStyle;rounded=0;orthogonalLoop=1;jettySize=auto;html=1;exitX=0.5;exitY=1;exitDx=0;exitDy=0;endArrow=none;endFill=0;dashed=1;" edge="1" parent="WIyWlLk6GJQsqaUBKTNV-1" source="JKZYkjQcErZYr4IZJuKD-2">
          <mxGeometry relative="1" as="geometry">
            <mxPoint x="499.5" y="490" as="targetPoint" />
          </mxGeometry>
        </mxCell>
        <mxCell id="JKZYkjQcErZYr4IZJuKD-8" value="includes &amp;gt;" style="edgeLabel;html=1;align=center;verticalAlign=middle;resizable=0;points=[];" connectable="0" vertex="1" parent="JKZYkjQcErZYr4IZJuKD-6">
          <mxGeometry x="0.9918" y="-5" relative="1" as="geometry">
            <mxPoint x="9" y="12" as="offset" />
          </mxGeometry>
        </mxCell>
        <mxCell id="JKZYkjQcErZYr4IZJuKD-2" value="Trip Infomation" style="swimlane;fontStyle=0;childLayout=stackLayout;horizontal=1;startSize=26;fillColor=none;horizontalStack=0;resizeParent=1;resizeParentMax=0;resizeLast=0;collapsible=1;marginBottom=0;whiteSpace=wrap;html=1;" vertex="1" parent="WIyWlLk6GJQsqaUBKTNV-1">
          <mxGeometry x="430" y="308" width="140" height="52" as="geometry" />
        </mxCell>
      </root>
    </mxGraphModel>
  </diagram>
  <diagram id="uBYKGhDP-H6pUmLRaVUU" name="ER">
    <mxGraphModel grid="1" page="1" gridSize="10" guides="1" tooltips="1" connect="1" arrows="1" fold="1" pageScale="1" pageWidth="1169" pageHeight="827" math="0" shadow="0">
      <root>
        <mxCell id="0" />
        <mxCell id="1" parent="0" />
        <mxCell id="gk-Ss4nU3ub-pLdCh7_8-1" style="edgeStyle=orthogonalEdgeStyle;rounded=0;orthogonalLoop=1;jettySize=auto;html=1;exitX=1;exitY=0.25;exitDx=0;exitDy=0;entryX=0;entryY=0.5;entryDx=0;entryDy=0;endArrow=ERzeroToMany;endFill=0;startArrow=ERmandOne;startFill=0;" edge="1" parent="1" source="mNSIzxGO3jESaURpg8Zb-1" target="18aqK6TGE6kJljCHJmo9-5">
          <mxGeometry relative="1" as="geometry" />
        </mxCell>
        <mxCell id="mNSIzxGO3jESaURpg8Zb-1" value="customers" style="shape=table;startSize=30;container=1;collapsible=1;childLayout=tableLayout;fixedRows=1;rowLines=0;fontStyle=1;align=center;resizeLast=1;html=1;" vertex="1" parent="1">
          <mxGeometry x="70" y="293" width="220" height="150" as="geometry" />
        </mxCell>
        <mxCell id="mNSIzxGO3jESaURpg8Zb-2" value="" style="shape=tableRow;horizontal=0;startSize=0;swimlaneHead=0;swimlaneBody=0;fillColor=none;collapsible=0;dropTarget=0;points=[[0,0.5],[1,0.5]];portConstraint=eastwest;top=0;left=0;right=0;bottom=1;" vertex="1" parent="mNSIzxGO3jESaURpg8Zb-1">
          <mxGeometry y="30" width="220" height="30" as="geometry" />
        </mxCell>
        <mxCell id="mNSIzxGO3jESaURpg8Zb-3" value="PK" style="shape=partialRectangle;connectable=0;fillColor=none;top=0;left=0;bottom=0;right=0;fontStyle=1;overflow=hidden;whiteSpace=wrap;html=1;" vertex="1" parent="mNSIzxGO3jESaURpg8Zb-2">
          <mxGeometry width="30" height="30" as="geometry">
            <mxRectangle width="30" height="30" as="alternateBounds" />
          </mxGeometry>
        </mxCell>
        <mxCell id="mNSIzxGO3jESaURpg8Zb-4" value="customer_id bigint" style="shape=partialRectangle;connectable=0;fillColor=none;top=0;left=0;bottom=0;right=0;align=left;spacingLeft=6;fontStyle=5;overflow=hidden;whiteSpace=wrap;html=1;" vertex="1" parent="mNSIzxGO3jESaURpg8Zb-2">
          <mxGeometry x="30" width="190" height="30" as="geometry">
            <mxRectangle width="190" height="30" as="alternateBounds" />
          </mxGeometry>
        </mxCell>
        <mxCell id="mNSIzxGO3jESaURpg8Zb-5" value="" style="shape=tableRow;horizontal=0;startSize=0;swimlaneHead=0;swimlaneBody=0;fillColor=none;collapsible=0;dropTarget=0;points=[[0,0.5],[1,0.5]];portConstraint=eastwest;top=0;left=0;right=0;bottom=0;" vertex="1" parent="mNSIzxGO3jESaURpg8Zb-1">
          <mxGeometry y="60" width="220" height="30" as="geometry" />
        </mxCell>
        <mxCell id="mNSIzxGO3jESaURpg8Zb-6" value="" style="shape=partialRectangle;connectable=0;fillColor=none;top=0;left=0;bottom=0;right=0;editable=1;overflow=hidden;whiteSpace=wrap;html=1;" vertex="1" parent="mNSIzxGO3jESaURpg8Zb-5">
          <mxGeometry width="30" height="30" as="geometry">
            <mxRectangle width="30" height="30" as="alternateBounds" />
          </mxGeometry>
        </mxCell>
        <mxCell id="mNSIzxGO3jESaURpg8Zb-7" value="first_name varchar(100)" style="shape=partialRectangle;connectable=0;fillColor=none;top=0;left=0;bottom=0;right=0;align=left;spacingLeft=6;overflow=hidden;whiteSpace=wrap;html=1;" vertex="1" parent="mNSIzxGO3jESaURpg8Zb-5">
          <mxGeometry x="30" width="190" height="30" as="geometry">
            <mxRectangle width="190" height="30" as="alternateBounds" />
          </mxGeometry>
        </mxCell>
        <mxCell id="mNSIzxGO3jESaURpg8Zb-8" value="" style="shape=tableRow;horizontal=0;startSize=0;swimlaneHead=0;swimlaneBody=0;fillColor=none;collapsible=0;dropTarget=0;points=[[0,0.5],[1,0.5]];portConstraint=eastwest;top=0;left=0;right=0;bottom=0;" vertex="1" parent="mNSIzxGO3jESaURpg8Zb-1">
          <mxGeometry y="90" width="220" height="30" as="geometry" />
        </mxCell>
        <mxCell id="mNSIzxGO3jESaURpg8Zb-9" value="" style="shape=partialRectangle;connectable=0;fillColor=none;top=0;left=0;bottom=0;right=0;editable=1;overflow=hidden;whiteSpace=wrap;html=1;" vertex="1" parent="mNSIzxGO3jESaURpg8Zb-8">
          <mxGeometry width="30" height="30" as="geometry">
            <mxRectangle width="30" height="30" as="alternateBounds" />
          </mxGeometry>
        </mxCell>
        <mxCell id="mNSIzxGO3jESaURpg8Zb-10" value="last_name varchar(100)" style="shape=partialRectangle;connectable=0;fillColor=none;top=0;left=0;bottom=0;right=0;align=left;spacingLeft=6;overflow=hidden;whiteSpace=wrap;html=1;" vertex="1" parent="mNSIzxGO3jESaURpg8Zb-8">
          <mxGeometry x="30" width="190" height="30" as="geometry">
            <mxRectangle width="190" height="30" as="alternateBounds" />
          </mxGeometry>
        </mxCell>
        <mxCell id="mNSIzxGO3jESaURpg8Zb-11" value="" style="shape=tableRow;horizontal=0;startSize=0;swimlaneHead=0;swimlaneBody=0;fillColor=none;collapsible=0;dropTarget=0;points=[[0,0.5],[1,0.5]];portConstraint=eastwest;top=0;left=0;right=0;bottom=0;" vertex="1" parent="mNSIzxGO3jESaURpg8Zb-1">
          <mxGeometry y="120" width="220" height="30" as="geometry" />
        </mxCell>
        <mxCell id="mNSIzxGO3jESaURpg8Zb-12" value="" style="shape=partialRectangle;connectable=0;fillColor=none;top=0;left=0;bottom=0;right=0;editable=1;overflow=hidden;whiteSpace=wrap;html=1;" vertex="1" parent="mNSIzxGO3jESaURpg8Zb-11">
          <mxGeometry width="30" height="30" as="geometry">
            <mxRectangle width="30" height="30" as="alternateBounds" />
          </mxGeometry>
        </mxCell>
        <mxCell id="mNSIzxGO3jESaURpg8Zb-13" value="customer_type CustomerType" style="shape=partialRectangle;connectable=0;fillColor=none;top=0;left=0;bottom=0;right=0;align=left;spacingLeft=6;overflow=hidden;whiteSpace=wrap;html=1;" vertex="1" parent="mNSIzxGO3jESaURpg8Zb-11">
          <mxGeometry x="30" width="190" height="30" as="geometry">
            <mxRectangle width="190" height="30" as="alternateBounds" />
          </mxGeometry>
        </mxCell>
        <mxCell id="9-FHtcBpM_k-e-yOGFtP-1" value="«enumeration»&lt;br&gt;&lt;b&gt;CustomerType&lt;/b&gt;" style="swimlane;fontStyle=0;childLayout=stackLayout;horizontal=1;startSize=40;fillColor=none;horizontalStack=0;resizeParent=1;resizeParentMax=0;resizeLast=0;collapsible=1;marginBottom=0;whiteSpace=wrap;html=1;" vertex="1" parent="1">
          <mxGeometry x="900" y="50" width="150" height="144" as="geometry" />
        </mxCell>
        <mxCell id="9-FHtcBpM_k-e-yOGFtP-2" value="Regular" style="text;strokeColor=none;fillColor=none;align=left;verticalAlign=top;spacingLeft=4;spacingRight=4;overflow=hidden;rotatable=0;points=[[0,0.5],[1,0.5]];portConstraint=eastwest;whiteSpace=wrap;html=1;" vertex="1" parent="9-FHtcBpM_k-e-yOGFtP-1">
          <mxGeometry y="40" width="150" height="26" as="geometry" />
        </mxCell>
        <mxCell id="9-FHtcBpM_k-e-yOGFtP-3" value="Children" style="text;strokeColor=none;fillColor=none;align=left;verticalAlign=top;spacingLeft=4;spacingRight=4;overflow=hidden;rotatable=0;points=[[0,0.5],[1,0.5]];portConstraint=eastwest;whiteSpace=wrap;html=1;" vertex="1" parent="9-FHtcBpM_k-e-yOGFtP-1">
          <mxGeometry y="66" width="150" height="26" as="geometry" />
        </mxCell>
        <mxCell id="9-FHtcBpM_k-e-yOGFtP-4" value="Student" style="text;strokeColor=none;fillColor=none;align=left;verticalAlign=top;spacingLeft=4;spacingRight=4;overflow=hidden;rotatable=0;points=[[0,0.5],[1,0.5]];portConstraint=eastwest;whiteSpace=wrap;html=1;" vertex="1" parent="9-FHtcBpM_k-e-yOGFtP-1">
          <mxGeometry y="92" width="150" height="26" as="geometry" />
        </mxCell>
        <mxCell id="9-FHtcBpM_k-e-yOGFtP-5" value="Elders" style="text;strokeColor=none;fillColor=none;align=left;verticalAlign=top;spacingLeft=4;spacingRight=4;overflow=hidden;rotatable=0;points=[[0,0.5],[1,0.5]];portConstraint=eastwest;whiteSpace=wrap;html=1;" vertex="1" parent="9-FHtcBpM_k-e-yOGFtP-1">
          <mxGeometry y="118" width="150" height="26" as="geometry" />
        </mxCell>
        <mxCell id="9-FHtcBpM_k-e-yOGFtP-6" value="«enumeration»&lt;br&gt;&lt;b&gt;TicketType&lt;/b&gt;" style="swimlane;fontStyle=0;childLayout=stackLayout;horizontal=1;startSize=40;fillColor=none;horizontalStack=0;resizeParent=1;resizeParentMax=0;resizeLast=0;collapsible=1;marginBottom=0;whiteSpace=wrap;html=1;" vertex="1" parent="1">
          <mxGeometry x="700" y="50" width="150" height="118" as="geometry" />
        </mxCell>
        <mxCell id="9-FHtcBpM_k-e-yOGFtP-7" value="Round trip" style="text;strokeColor=none;fillColor=none;align=left;verticalAlign=top;spacingLeft=4;spacingRight=4;overflow=hidden;rotatable=0;points=[[0,0.5],[1,0.5]];portConstraint=eastwest;whiteSpace=wrap;html=1;" vertex="1" parent="9-FHtcBpM_k-e-yOGFtP-6">
          <mxGeometry y="40" width="150" height="26" as="geometry" />
        </mxCell>
        <mxCell id="9-FHtcBpM_k-e-yOGFtP-8" value="One way" style="text;strokeColor=none;fillColor=none;align=left;verticalAlign=top;spacingLeft=4;spacingRight=4;overflow=hidden;rotatable=0;points=[[0,0.5],[1,0.5]];portConstraint=eastwest;whiteSpace=wrap;html=1;" vertex="1" parent="9-FHtcBpM_k-e-yOGFtP-6">
          <mxGeometry y="66" width="150" height="26" as="geometry" />
        </mxCell>
        <mxCell id="9-FHtcBpM_k-e-yOGFtP-9" value="Monthly" style="text;strokeColor=none;fillColor=none;align=left;verticalAlign=top;spacingLeft=4;spacingRight=4;overflow=hidden;rotatable=0;points=[[0,0.5],[1,0.5]];portConstraint=eastwest;whiteSpace=wrap;html=1;" vertex="1" parent="9-FHtcBpM_k-e-yOGFtP-6">
          <mxGeometry y="92" width="150" height="26" as="geometry" />
        </mxCell>
        <mxCell id="9-FHtcBpM_k-e-yOGFtP-10" value="tickets" style="shape=table;startSize=30;container=1;collapsible=1;childLayout=tableLayout;fixedRows=1;rowLines=0;fontStyle=1;align=center;resizeLast=1;html=1;" vertex="1" parent="1">
          <mxGeometry x="90" y="534" width="180" height="180" as="geometry" />
        </mxCell>
        <mxCell id="9-FHtcBpM_k-e-yOGFtP-11" value="" style="shape=tableRow;horizontal=0;startSize=0;swimlaneHead=0;swimlaneBody=0;fillColor=none;collapsible=0;dropTarget=0;points=[[0,0.5],[1,0.5]];portConstraint=eastwest;top=0;left=0;right=0;bottom=1;" vertex="1" parent="9-FHtcBpM_k-e-yOGFtP-10">
          <mxGeometry y="30" width="180" height="30" as="geometry" />
        </mxCell>
        <mxCell id="9-FHtcBpM_k-e-yOGFtP-12" value="PK" style="shape=partialRectangle;connectable=0;fillColor=none;top=0;left=0;bottom=0;right=0;fontStyle=1;overflow=hidden;whiteSpace=wrap;html=1;" vertex="1" parent="9-FHtcBpM_k-e-yOGFtP-11">
          <mxGeometry width="30" height="30" as="geometry">
            <mxRectangle width="30" height="30" as="alternateBounds" />
          </mxGeometry>
        </mxCell>
        <mxCell id="9-FHtcBpM_k-e-yOGFtP-13" value="ticket_id int" style="shape=partialRectangle;connectable=0;fillColor=none;top=0;left=0;bottom=0;right=0;align=left;spacingLeft=6;fontStyle=5;overflow=hidden;whiteSpace=wrap;html=1;" vertex="1" parent="9-FHtcBpM_k-e-yOGFtP-11">
          <mxGeometry x="30" width="150" height="30" as="geometry">
            <mxRectangle width="150" height="30" as="alternateBounds" />
          </mxGeometry>
        </mxCell>
        <mxCell id="9-FHtcBpM_k-e-yOGFtP-14" value="" style="shape=tableRow;horizontal=0;startSize=0;swimlaneHead=0;swimlaneBody=0;fillColor=none;collapsible=0;dropTarget=0;points=[[0,0.5],[1,0.5]];portConstraint=eastwest;top=0;left=0;right=0;bottom=0;" vertex="1" parent="9-FHtcBpM_k-e-yOGFtP-10">
          <mxGeometry y="60" width="180" height="30" as="geometry" />
        </mxCell>
        <mxCell id="9-FHtcBpM_k-e-yOGFtP-15" value="" style="shape=partialRectangle;connectable=0;fillColor=none;top=0;left=0;bottom=0;right=0;editable=1;overflow=hidden;whiteSpace=wrap;html=1;" vertex="1" parent="9-FHtcBpM_k-e-yOGFtP-14">
          <mxGeometry width="30" height="30" as="geometry">
            <mxRectangle width="30" height="30" as="alternateBounds" />
          </mxGeometry>
        </mxCell>
        <mxCell id="9-FHtcBpM_k-e-yOGFtP-16" value="type TicketType" style="shape=partialRectangle;connectable=0;fillColor=none;top=0;left=0;bottom=0;right=0;align=left;spacingLeft=6;overflow=hidden;whiteSpace=wrap;html=1;" vertex="1" parent="9-FHtcBpM_k-e-yOGFtP-14">
          <mxGeometry x="30" width="150" height="30" as="geometry">
            <mxRectangle width="150" height="30" as="alternateBounds" />
          </mxGeometry>
        </mxCell>
        <mxCell id="9-FHtcBpM_k-e-yOGFtP-17" value="" style="shape=tableRow;horizontal=0;startSize=0;swimlaneHead=0;swimlaneBody=0;fillColor=none;collapsible=0;dropTarget=0;points=[[0,0.5],[1,0.5]];portConstraint=eastwest;top=0;left=0;right=0;bottom=0;" vertex="1" parent="9-FHtcBpM_k-e-yOGFtP-10">
          <mxGeometry y="90" width="180" height="30" as="geometry" />
        </mxCell>
        <mxCell id="9-FHtcBpM_k-e-yOGFtP-18" value="" style="shape=partialRectangle;connectable=0;fillColor=none;top=0;left=0;bottom=0;right=0;editable=1;overflow=hidden;whiteSpace=wrap;html=1;" vertex="1" parent="9-FHtcBpM_k-e-yOGFtP-17">
          <mxGeometry width="30" height="30" as="geometry">
            <mxRectangle width="30" height="30" as="alternateBounds" />
          </mxGeometry>
        </mxCell>
        <mxCell id="9-FHtcBpM_k-e-yOGFtP-19" value="price float" style="shape=partialRectangle;connectable=0;fillColor=none;top=0;left=0;bottom=0;right=0;align=left;spacingLeft=6;overflow=hidden;whiteSpace=wrap;html=1;" vertex="1" parent="9-FHtcBpM_k-e-yOGFtP-17">
          <mxGeometry x="30" width="150" height="30" as="geometry">
            <mxRectangle width="150" height="30" as="alternateBounds" />
          </mxGeometry>
        </mxCell>
        <mxCell id="Uhjwt3eyKb_B3kkpqKZ3-1" value="" style="shape=tableRow;horizontal=0;startSize=0;swimlaneHead=0;swimlaneBody=0;fillColor=none;collapsible=0;dropTarget=0;points=[[0,0.5],[1,0.5]];portConstraint=eastwest;top=0;left=0;right=0;bottom=0;" vertex="1" parent="9-FHtcBpM_k-e-yOGFtP-10">
          <mxGeometry y="120" width="180" height="30" as="geometry" />
        </mxCell>
        <mxCell id="Uhjwt3eyKb_B3kkpqKZ3-2" value="" style="shape=partialRectangle;connectable=0;fillColor=none;top=0;left=0;bottom=0;right=0;editable=1;overflow=hidden;whiteSpace=wrap;html=1;" vertex="1" parent="Uhjwt3eyKb_B3kkpqKZ3-1">
          <mxGeometry width="30" height="30" as="geometry">
            <mxRectangle width="30" height="30" as="alternateBounds" />
          </mxGeometry>
        </mxCell>
        <mxCell id="Uhjwt3eyKb_B3kkpqKZ3-3" value="expiry datetime" style="shape=partialRectangle;connectable=0;fillColor=none;top=0;left=0;bottom=0;right=0;align=left;spacingLeft=6;overflow=hidden;whiteSpace=wrap;html=1;" vertex="1" parent="Uhjwt3eyKb_B3kkpqKZ3-1">
          <mxGeometry x="30" width="150" height="30" as="geometry">
            <mxRectangle width="150" height="30" as="alternateBounds" />
          </mxGeometry>
        </mxCell>
        <mxCell id="9-FHtcBpM_k-e-yOGFtP-20" value="" style="shape=tableRow;horizontal=0;startSize=0;swimlaneHead=0;swimlaneBody=0;fillColor=none;collapsible=0;dropTarget=0;points=[[0,0.5],[1,0.5]];portConstraint=eastwest;top=0;left=0;right=0;bottom=0;" vertex="1" parent="9-FHtcBpM_k-e-yOGFtP-10">
          <mxGeometry y="150" width="180" height="30" as="geometry" />
        </mxCell>
        <mxCell id="9-FHtcBpM_k-e-yOGFtP-21" value="FK" style="shape=partialRectangle;connectable=0;fillColor=none;top=0;left=0;bottom=0;right=0;editable=1;overflow=hidden;whiteSpace=wrap;html=1;" vertex="1" parent="9-FHtcBpM_k-e-yOGFtP-20">
          <mxGeometry width="30" height="30" as="geometry">
            <mxRectangle width="30" height="30" as="alternateBounds" />
          </mxGeometry>
        </mxCell>
        <mxCell id="9-FHtcBpM_k-e-yOGFtP-22" value="customer_id bigint" style="shape=partialRectangle;connectable=0;fillColor=none;top=0;left=0;bottom=0;right=0;align=left;spacingLeft=6;overflow=hidden;whiteSpace=wrap;html=1;" vertex="1" parent="9-FHtcBpM_k-e-yOGFtP-20">
          <mxGeometry x="30" width="150" height="30" as="geometry">
            <mxRectangle width="150" height="30" as="alternateBounds" />
          </mxGeometry>
        </mxCell>
        <mxCell id="mFeoVfbQenEPNsyo3Xxm-1" value="metro_trips" style="shape=table;startSize=30;container=1;collapsible=1;childLayout=tableLayout;fixedRows=1;rowLines=0;fontStyle=1;align=center;resizeLast=1;html=1;" vertex="1" parent="1">
          <mxGeometry x="890" y="534" width="180" height="180" as="geometry" />
        </mxCell>
        <mxCell id="mFeoVfbQenEPNsyo3Xxm-2" value="" style="shape=tableRow;horizontal=0;startSize=0;swimlaneHead=0;swimlaneBody=0;fillColor=none;collapsible=0;dropTarget=0;points=[[0,0.5],[1,0.5]];portConstraint=eastwest;top=0;left=0;right=0;bottom=1;" vertex="1" parent="mFeoVfbQenEPNsyo3Xxm-1">
          <mxGeometry y="30" width="180" height="30" as="geometry" />
        </mxCell>
        <mxCell id="mFeoVfbQenEPNsyo3Xxm-3" value="PK" style="shape=partialRectangle;connectable=0;fillColor=none;top=0;left=0;bottom=0;right=0;fontStyle=1;overflow=hidden;whiteSpace=wrap;html=1;" vertex="1" parent="mFeoVfbQenEPNsyo3Xxm-2">
          <mxGeometry width="50" height="30" as="geometry">
            <mxRectangle width="50" height="30" as="alternateBounds" />
          </mxGeometry>
        </mxCell>
        <mxCell id="mFeoVfbQenEPNsyo3Xxm-4" value="trip_id int" style="shape=partialRectangle;connectable=0;fillColor=none;top=0;left=0;bottom=0;right=0;align=left;spacingLeft=6;fontStyle=5;overflow=hidden;whiteSpace=wrap;html=1;" vertex="1" parent="mFeoVfbQenEPNsyo3Xxm-2">
          <mxGeometry x="50" width="130" height="30" as="geometry">
            <mxRectangle width="130" height="30" as="alternateBounds" />
          </mxGeometry>
        </mxCell>
        <mxCell id="mFeoVfbQenEPNsyo3Xxm-5" value="" style="shape=tableRow;horizontal=0;startSize=0;swimlaneHead=0;swimlaneBody=0;fillColor=none;collapsible=0;dropTarget=0;points=[[0,0.5],[1,0.5]];portConstraint=eastwest;top=0;left=0;right=0;bottom=0;" vertex="1" parent="mFeoVfbQenEPNsyo3Xxm-1">
          <mxGeometry y="60" width="180" height="30" as="geometry" />
        </mxCell>
        <mxCell id="mFeoVfbQenEPNsyo3Xxm-6" value="" style="shape=partialRectangle;connectable=0;fillColor=none;top=0;left=0;bottom=0;right=0;editable=1;overflow=hidden;whiteSpace=wrap;html=1;" vertex="1" parent="mFeoVfbQenEPNsyo3Xxm-5">
          <mxGeometry width="50" height="30" as="geometry">
            <mxRectangle width="50" height="30" as="alternateBounds" />
          </mxGeometry>
        </mxCell>
        <mxCell id="mFeoVfbQenEPNsyo3Xxm-7" value="departure_time time" style="shape=partialRectangle;connectable=0;fillColor=none;top=0;left=0;bottom=0;right=0;align=left;spacingLeft=6;overflow=hidden;whiteSpace=wrap;html=1;" vertex="1" parent="mFeoVfbQenEPNsyo3Xxm-5">
          <mxGeometry x="50" width="130" height="30" as="geometry">
            <mxRectangle width="130" height="30" as="alternateBounds" />
          </mxGeometry>
        </mxCell>
        <mxCell id="mFeoVfbQenEPNsyo3Xxm-8" value="" style="shape=tableRow;horizontal=0;startSize=0;swimlaneHead=0;swimlaneBody=0;fillColor=none;collapsible=0;dropTarget=0;points=[[0,0.5],[1,0.5]];portConstraint=eastwest;top=0;left=0;right=0;bottom=0;" vertex="1" parent="mFeoVfbQenEPNsyo3Xxm-1">
          <mxGeometry y="90" width="180" height="30" as="geometry" />
        </mxCell>
        <mxCell id="mFeoVfbQenEPNsyo3Xxm-9" value="" style="shape=partialRectangle;connectable=0;fillColor=none;top=0;left=0;bottom=0;right=0;editable=1;overflow=hidden;whiteSpace=wrap;html=1;" vertex="1" parent="mFeoVfbQenEPNsyo3Xxm-8">
          <mxGeometry width="50" height="30" as="geometry">
            <mxRectangle width="50" height="30" as="alternateBounds" />
          </mxGeometry>
        </mxCell>
        <mxCell id="mFeoVfbQenEPNsyo3Xxm-10" value="direction int" style="shape=partialRectangle;connectable=0;fillColor=none;top=0;left=0;bottom=0;right=0;align=left;spacingLeft=6;overflow=hidden;whiteSpace=wrap;html=1;" vertex="1" parent="mFeoVfbQenEPNsyo3Xxm-8">
          <mxGeometry x="50" width="130" height="30" as="geometry">
            <mxRectangle width="130" height="30" as="alternateBounds" />
          </mxGeometry>
        </mxCell>
        <mxCell id="RMLL7-DVV2M8bgcUE2Ep-2" value="" style="shape=tableRow;horizontal=0;startSize=0;swimlaneHead=0;swimlaneBody=0;fillColor=none;collapsible=0;dropTarget=0;points=[[0,0.5],[1,0.5]];portConstraint=eastwest;top=0;left=0;right=0;bottom=0;" vertex="1" parent="mFeoVfbQenEPNsyo3Xxm-1">
          <mxGeometry y="120" width="180" height="30" as="geometry" />
        </mxCell>
        <mxCell id="RMLL7-DVV2M8bgcUE2Ep-3" value="PK, FK1" style="shape=partialRectangle;connectable=0;fillColor=none;top=0;left=0;bottom=0;right=0;editable=1;overflow=hidden;whiteSpace=wrap;html=1;fontStyle=1" vertex="1" parent="RMLL7-DVV2M8bgcUE2Ep-2">
          <mxGeometry width="50" height="30" as="geometry">
            <mxRectangle width="50" height="30" as="alternateBounds" />
          </mxGeometry>
        </mxCell>
        <mxCell id="RMLL7-DVV2M8bgcUE2Ep-4" value="stop_id int" style="shape=partialRectangle;connectable=0;fillColor=none;top=0;left=0;bottom=0;right=0;align=left;spacingLeft=6;overflow=hidden;whiteSpace=wrap;html=1;fontStyle=5" vertex="1" parent="RMLL7-DVV2M8bgcUE2Ep-2">
          <mxGeometry x="50" width="130" height="30" as="geometry">
            <mxRectangle width="130" height="30" as="alternateBounds" />
          </mxGeometry>
        </mxCell>
        <mxCell id="mFeoVfbQenEPNsyo3Xxm-11" value="" style="shape=tableRow;horizontal=0;startSize=0;swimlaneHead=0;swimlaneBody=0;fillColor=none;collapsible=0;dropTarget=0;points=[[0,0.5],[1,0.5]];portConstraint=eastwest;top=0;left=0;right=0;bottom=0;" vertex="1" parent="mFeoVfbQenEPNsyo3Xxm-1">
          <mxGeometry y="150" width="180" height="30" as="geometry" />
        </mxCell>
        <mxCell id="mFeoVfbQenEPNsyo3Xxm-12" value="FK2" style="shape=partialRectangle;connectable=0;fillColor=none;top=0;left=0;bottom=0;right=0;editable=1;overflow=hidden;whiteSpace=wrap;html=1;" vertex="1" parent="mFeoVfbQenEPNsyo3Xxm-11">
          <mxGeometry width="50" height="30" as="geometry">
            <mxRectangle width="50" height="30" as="alternateBounds" />
          </mxGeometry>
        </mxCell>
        <mxCell id="mFeoVfbQenEPNsyo3Xxm-13" value="line_id int" style="shape=partialRectangle;connectable=0;fillColor=none;top=0;left=0;bottom=0;right=0;align=left;spacingLeft=6;overflow=hidden;whiteSpace=wrap;html=1;" vertex="1" parent="mFeoVfbQenEPNsyo3Xxm-11">
          <mxGeometry x="50" width="130" height="30" as="geometry">
            <mxRectangle width="130" height="30" as="alternateBounds" />
          </mxGeometry>
        </mxCell>
        <mxCell id="0qebAsZMBjVa9KZ359Yl-1" value="metro_lines" style="shape=table;startSize=30;container=1;collapsible=1;childLayout=tableLayout;fixedRows=1;rowLines=0;fontStyle=1;align=center;resizeLast=1;html=1;" vertex="1" parent="1">
          <mxGeometry x="1550" y="340" width="180" height="90" as="geometry" />
        </mxCell>
        <mxCell id="0qebAsZMBjVa9KZ359Yl-2" value="" style="shape=tableRow;horizontal=0;startSize=0;swimlaneHead=0;swimlaneBody=0;fillColor=none;collapsible=0;dropTarget=0;points=[[0,0.5],[1,0.5]];portConstraint=eastwest;top=0;left=0;right=0;bottom=1;" vertex="1" parent="0qebAsZMBjVa9KZ359Yl-1">
          <mxGeometry y="30" width="180" height="30" as="geometry" />
        </mxCell>
        <mxCell id="0qebAsZMBjVa9KZ359Yl-3" value="PK" style="shape=partialRectangle;connectable=0;fillColor=none;top=0;left=0;bottom=0;right=0;fontStyle=1;overflow=hidden;whiteSpace=wrap;html=1;" vertex="1" parent="0qebAsZMBjVa9KZ359Yl-2">
          <mxGeometry width="30" height="30" as="geometry">
            <mxRectangle width="30" height="30" as="alternateBounds" />
          </mxGeometry>
        </mxCell>
        <mxCell id="0qebAsZMBjVa9KZ359Yl-4" value="line_id int" style="shape=partialRectangle;connectable=0;fillColor=none;top=0;left=0;bottom=0;right=0;align=left;spacingLeft=6;fontStyle=5;overflow=hidden;whiteSpace=wrap;html=1;" vertex="1" parent="0qebAsZMBjVa9KZ359Yl-2">
          <mxGeometry x="30" width="150" height="30" as="geometry">
            <mxRectangle width="150" height="30" as="alternateBounds" />
          </mxGeometry>
        </mxCell>
        <mxCell id="0qebAsZMBjVa9KZ359Yl-5" value="" style="shape=tableRow;horizontal=0;startSize=0;swimlaneHead=0;swimlaneBody=0;fillColor=none;collapsible=0;dropTarget=0;points=[[0,0.5],[1,0.5]];portConstraint=eastwest;top=0;left=0;right=0;bottom=0;" vertex="1" parent="0qebAsZMBjVa9KZ359Yl-1">
          <mxGeometry y="60" width="180" height="30" as="geometry" />
        </mxCell>
        <mxCell id="0qebAsZMBjVa9KZ359Yl-6" value="" style="shape=partialRectangle;connectable=0;fillColor=none;top=0;left=0;bottom=0;right=0;editable=1;overflow=hidden;whiteSpace=wrap;html=1;" vertex="1" parent="0qebAsZMBjVa9KZ359Yl-5">
          <mxGeometry width="30" height="30" as="geometry">
            <mxRectangle width="30" height="30" as="alternateBounds" />
          </mxGeometry>
        </mxCell>
        <mxCell id="0qebAsZMBjVa9KZ359Yl-7" value="stop_quantity int" style="shape=partialRectangle;connectable=0;fillColor=none;top=0;left=0;bottom=0;right=0;align=left;spacingLeft=6;overflow=hidden;whiteSpace=wrap;html=1;" vertex="1" parent="0qebAsZMBjVa9KZ359Yl-5">
          <mxGeometry x="30" width="150" height="30" as="geometry">
            <mxRectangle width="150" height="30" as="alternateBounds" />
          </mxGeometry>
        </mxCell>
        <mxCell id="7SmG_vtjaQL74Wixnx-c-1" value="metro_stops" style="shape=table;startSize=30;container=1;collapsible=1;childLayout=tableLayout;fixedRows=1;rowLines=0;fontStyle=1;align=center;resizeLast=1;html=1;" vertex="1" parent="1">
          <mxGeometry x="1080" y="340" width="180" height="90" as="geometry" />
        </mxCell>
        <mxCell id="7SmG_vtjaQL74Wixnx-c-2" value="" style="shape=tableRow;horizontal=0;startSize=0;swimlaneHead=0;swimlaneBody=0;fillColor=none;collapsible=0;dropTarget=0;points=[[0,0.5],[1,0.5]];portConstraint=eastwest;top=0;left=0;right=0;bottom=1;" vertex="1" parent="7SmG_vtjaQL74Wixnx-c-1">
          <mxGeometry y="30" width="180" height="30" as="geometry" />
        </mxCell>
        <mxCell id="7SmG_vtjaQL74Wixnx-c-3" value="PK" style="shape=partialRectangle;connectable=0;fillColor=none;top=0;left=0;bottom=0;right=0;fontStyle=1;overflow=hidden;whiteSpace=wrap;html=1;" vertex="1" parent="7SmG_vtjaQL74Wixnx-c-2">
          <mxGeometry width="30" height="30" as="geometry">
            <mxRectangle width="30" height="30" as="alternateBounds" />
          </mxGeometry>
        </mxCell>
        <mxCell id="7SmG_vtjaQL74Wixnx-c-4" value="stop_id int" style="shape=partialRectangle;connectable=0;fillColor=none;top=0;left=0;bottom=0;right=0;align=left;spacingLeft=6;fontStyle=5;overflow=hidden;whiteSpace=wrap;html=1;" vertex="1" parent="7SmG_vtjaQL74Wixnx-c-2">
          <mxGeometry x="30" width="150" height="30" as="geometry">
            <mxRectangle width="150" height="30" as="alternateBounds" />
          </mxGeometry>
        </mxCell>
        <mxCell id="7SmG_vtjaQL74Wixnx-c-5" value="" style="shape=tableRow;horizontal=0;startSize=0;swimlaneHead=0;swimlaneBody=0;fillColor=none;collapsible=0;dropTarget=0;points=[[0,0.5],[1,0.5]];portConstraint=eastwest;top=0;left=0;right=0;bottom=0;" vertex="1" parent="7SmG_vtjaQL74Wixnx-c-1">
          <mxGeometry y="60" width="180" height="30" as="geometry" />
        </mxCell>
        <mxCell id="7SmG_vtjaQL74Wixnx-c-6" value="" style="shape=partialRectangle;connectable=0;fillColor=none;top=0;left=0;bottom=0;right=0;editable=1;overflow=hidden;whiteSpace=wrap;html=1;" vertex="1" parent="7SmG_vtjaQL74Wixnx-c-5">
          <mxGeometry width="30" height="30" as="geometry">
            <mxRectangle width="30" height="30" as="alternateBounds" />
          </mxGeometry>
        </mxCell>
        <mxCell id="7SmG_vtjaQL74Wixnx-c-7" value="stop_name varchar(100)" style="shape=partialRectangle;connectable=0;fillColor=none;top=0;left=0;bottom=0;right=0;align=left;spacingLeft=6;overflow=hidden;whiteSpace=wrap;html=1;" vertex="1" parent="7SmG_vtjaQL74Wixnx-c-5">
          <mxGeometry x="30" width="150" height="30" as="geometry">
            <mxRectangle width="150" height="30" as="alternateBounds" />
          </mxGeometry>
        </mxCell>
        <mxCell id="Uhjwt3eyKb_B3kkpqKZ3-4" style="edgeStyle=orthogonalEdgeStyle;rounded=0;orthogonalLoop=1;jettySize=auto;html=1;exitX=0;exitY=0.5;exitDx=0;exitDy=0;entryX=0;entryY=0.5;entryDx=0;entryDy=0;endArrow=ERzeroToOne;endFill=0;startArrow=ERmandOne;startFill=0;" edge="1" parent="1" source="mNSIzxGO3jESaURpg8Zb-2" target="9-FHtcBpM_k-e-yOGFtP-20">
          <mxGeometry relative="1" as="geometry">
            <Array as="points">
              <mxPoint x="40" y="339" />
              <mxPoint x="40" y="699" />
            </Array>
          </mxGeometry>
        </mxCell>
        <mxCell id="18aqK6TGE6kJljCHJmo9-1" value="customer_trips" style="shape=table;startSize=30;container=1;collapsible=1;childLayout=tableLayout;fixedRows=1;rowLines=0;fontStyle=1;align=center;resizeLast=1;html=1;swimlaneLine=1;" vertex="1" parent="1">
          <mxGeometry x="380" y="546" width="210" height="126" as="geometry" />
        </mxCell>
        <mxCell id="18aqK6TGE6kJljCHJmo9-2" value="" style="shape=tableRow;horizontal=0;startSize=0;swimlaneHead=0;swimlaneBody=0;fillColor=none;collapsible=0;dropTarget=0;points=[[0,0.5],[1,0.5]];portConstraint=eastwest;top=0;left=0;right=0;bottom=1;swimlaneFillColor=none;swimlaneLine=0;" vertex="1" parent="18aqK6TGE6kJljCHJmo9-1">
          <mxGeometry y="30" width="210" height="36" as="geometry" />
        </mxCell>
        <mxCell id="18aqK6TGE6kJljCHJmo9-3" value="PK" style="shape=partialRectangle;connectable=0;fillColor=none;top=0;left=0;bottom=0;right=0;fontStyle=1;overflow=hidden;whiteSpace=wrap;html=1;swimlaneFillColor=none;swimlaneLine=0;" vertex="1" parent="18aqK6TGE6kJljCHJmo9-2">
          <mxGeometry width="49.999999999999886" height="36" as="geometry">
            <mxRectangle width="49.999999999999886" height="36" as="alternateBounds" />
          </mxGeometry>
        </mxCell>
        <mxCell id="18aqK6TGE6kJljCHJmo9-4" value="ctrip_id int" style="shape=partialRectangle;connectable=0;fillColor=none;top=0;left=0;bottom=0;right=0;align=left;spacingLeft=6;fontStyle=5;overflow=hidden;whiteSpace=wrap;html=1;swimlaneFillColor=none;swimlaneLine=0;strokeColor=default;" vertex="1" parent="18aqK6TGE6kJljCHJmo9-2">
          <mxGeometry x="49.999999999999886" width="160.0000000000001" height="36" as="geometry">
            <mxRectangle width="160.0000000000001" height="36" as="alternateBounds" />
          </mxGeometry>
        </mxCell>
        <mxCell id="18aqK6TGE6kJljCHJmo9-5" value="" style="shape=tableRow;horizontal=0;startSize=0;swimlaneHead=0;swimlaneBody=0;fillColor=none;collapsible=0;dropTarget=0;points=[[0,0.5],[1,0.5]];portConstraint=eastwest;top=0;left=0;right=0;bottom=0;swimlaneFillColor=none;swimlaneLine=0;" vertex="1" parent="18aqK6TGE6kJljCHJmo9-1">
          <mxGeometry y="66" width="210" height="30" as="geometry" />
        </mxCell>
        <mxCell id="18aqK6TGE6kJljCHJmo9-6" value="&lt;span style=&quot;font-weight: normal;&quot;&gt;FK&lt;/span&gt;" style="shape=partialRectangle;connectable=0;fillColor=none;top=0;left=0;bottom=0;right=0;editable=1;overflow=hidden;whiteSpace=wrap;html=1;swimlaneFillColor=none;swimlaneLine=0;fontStyle=1" vertex="1" parent="18aqK6TGE6kJljCHJmo9-5">
          <mxGeometry width="49.999999999999886" height="30" as="geometry">
            <mxRectangle width="49.999999999999886" height="30" as="alternateBounds" />
          </mxGeometry>
        </mxCell>
        <mxCell id="18aqK6TGE6kJljCHJmo9-7" value="customer_id bigint" style="shape=partialRectangle;connectable=0;fillColor=none;top=0;left=0;bottom=0;right=0;align=left;spacingLeft=6;overflow=hidden;whiteSpace=wrap;html=1;swimlaneFillColor=none;swimlaneLine=0;fontStyle=0" vertex="1" parent="18aqK6TGE6kJljCHJmo9-5">
          <mxGeometry x="49.999999999999886" width="160.0000000000001" height="30" as="geometry">
            <mxRectangle width="160.0000000000001" height="30" as="alternateBounds" />
          </mxGeometry>
        </mxCell>
        <mxCell id="bi9xl6LUQkHyFIDs4fyx-15" value="" style="shape=tableRow;horizontal=0;startSize=0;swimlaneHead=0;swimlaneBody=0;fillColor=none;collapsible=0;dropTarget=0;points=[[0,0.5],[1,0.5]];portConstraint=eastwest;top=0;left=0;right=0;bottom=0;swimlaneFillColor=none;swimlaneLine=0;" vertex="1" parent="18aqK6TGE6kJljCHJmo9-1">
          <mxGeometry y="96" width="210" height="30" as="geometry" />
        </mxCell>
        <mxCell id="bi9xl6LUQkHyFIDs4fyx-16" value="" style="shape=partialRectangle;connectable=0;fillColor=none;top=0;left=0;bottom=0;right=0;editable=1;overflow=hidden;whiteSpace=wrap;html=1;swimlaneFillColor=none;swimlaneLine=0;fontStyle=0" vertex="1" parent="bi9xl6LUQkHyFIDs4fyx-15">
          <mxGeometry width="49.999999999999886" height="30" as="geometry">
            <mxRectangle width="49.999999999999886" height="30" as="alternateBounds" />
          </mxGeometry>
        </mxCell>
        <mxCell id="bi9xl6LUQkHyFIDs4fyx-17" value="&lt;span style=&quot;font-weight: normal;&quot;&gt;date date&lt;/span&gt;" style="shape=partialRectangle;connectable=0;fillColor=none;top=0;left=0;bottom=0;right=0;align=left;spacingLeft=6;overflow=hidden;whiteSpace=wrap;html=1;swimlaneFillColor=none;swimlaneLine=0;fontStyle=1" vertex="1" parent="bi9xl6LUQkHyFIDs4fyx-15">
          <mxGeometry x="49.999999999999886" width="160.0000000000001" height="30" as="geometry">
            <mxRectangle width="160.0000000000001" height="30" as="alternateBounds" />
          </mxGeometry>
        </mxCell>
        <mxCell id="1cZniwEfPOViycfA0ee5-1" value="trip_information" style="shape=table;startSize=30;container=1;collapsible=1;childLayout=tableLayout;fixedRows=1;rowLines=0;fontStyle=1;align=center;resizeLast=1;html=1;whiteSpace=wrap;" vertex="1" parent="1">
          <mxGeometry x="650" y="330" width="180" height="120" as="geometry" />
        </mxCell>
        <mxCell id="1cZniwEfPOViycfA0ee5-2" value="" style="shape=tableRow;horizontal=0;startSize=0;swimlaneHead=0;swimlaneBody=0;fillColor=none;collapsible=0;dropTarget=0;points=[[0,0.5],[1,0.5]];portConstraint=eastwest;top=0;left=0;right=0;bottom=0;html=1;" vertex="1" parent="1cZniwEfPOViycfA0ee5-1">
          <mxGeometry y="30" width="180" height="30" as="geometry" />
        </mxCell>
        <mxCell id="1cZniwEfPOViycfA0ee5-3" value="PK,FK1" style="shape=partialRectangle;connectable=0;fillColor=none;top=0;left=0;bottom=0;right=0;fontStyle=1;overflow=hidden;html=1;whiteSpace=wrap;" vertex="1" parent="1cZniwEfPOViycfA0ee5-2">
          <mxGeometry width="60" height="30" as="geometry">
            <mxRectangle width="60" height="30" as="alternateBounds" />
          </mxGeometry>
        </mxCell>
        <mxCell id="1cZniwEfPOViycfA0ee5-4" value="ctrip_id int" style="shape=partialRectangle;connectable=0;fillColor=none;top=0;left=0;bottom=0;right=0;align=left;spacingLeft=6;fontStyle=5;overflow=hidden;html=1;whiteSpace=wrap;" vertex="1" parent="1cZniwEfPOViycfA0ee5-2">
          <mxGeometry x="60" width="120" height="30" as="geometry">
            <mxRectangle width="120" height="30" as="alternateBounds" />
          </mxGeometry>
        </mxCell>
        <mxCell id="wmyZjYJm2SWG2oXha9I--4" value="" style="shape=tableRow;horizontal=0;startSize=0;swimlaneHead=0;swimlaneBody=0;fillColor=none;collapsible=0;dropTarget=0;points=[[0,0.5],[1,0.5]];portConstraint=eastwest;top=0;left=0;right=0;bottom=0;html=1;" vertex="1" parent="1cZniwEfPOViycfA0ee5-1">
          <mxGeometry y="60" width="180" height="30" as="geometry" />
        </mxCell>
        <mxCell id="wmyZjYJm2SWG2oXha9I--5" value="PK,FK2" style="shape=partialRectangle;connectable=0;fillColor=none;top=0;left=0;bottom=0;right=0;fontStyle=1;overflow=hidden;html=1;whiteSpace=wrap;" vertex="1" parent="wmyZjYJm2SWG2oXha9I--4">
          <mxGeometry width="60" height="30" as="geometry">
            <mxRectangle width="60" height="30" as="alternateBounds" />
          </mxGeometry>
        </mxCell>
        <mxCell id="wmyZjYJm2SWG2oXha9I--6" value="stop_id int" style="shape=partialRectangle;connectable=0;fillColor=none;top=0;left=0;bottom=0;right=0;align=left;spacingLeft=6;fontStyle=5;overflow=hidden;html=1;whiteSpace=wrap;" vertex="1" parent="wmyZjYJm2SWG2oXha9I--4">
          <mxGeometry x="60" width="120" height="30" as="geometry">
            <mxRectangle width="120" height="30" as="alternateBounds" />
          </mxGeometry>
        </mxCell>
        <mxCell id="1cZniwEfPOViycfA0ee5-5" value="" style="shape=tableRow;horizontal=0;startSize=0;swimlaneHead=0;swimlaneBody=0;fillColor=none;collapsible=0;dropTarget=0;points=[[0,0.5],[1,0.5]];portConstraint=eastwest;top=0;left=0;right=0;bottom=1;html=1;" vertex="1" parent="1cZniwEfPOViycfA0ee5-1">
          <mxGeometry y="90" width="180" height="30" as="geometry" />
        </mxCell>
        <mxCell id="1cZniwEfPOViycfA0ee5-6" value="PK,FK3" style="shape=partialRectangle;connectable=0;fillColor=none;top=0;left=0;bottom=0;right=0;fontStyle=1;overflow=hidden;html=1;whiteSpace=wrap;" vertex="1" parent="1cZniwEfPOViycfA0ee5-5">
          <mxGeometry width="60" height="30" as="geometry">
            <mxRectangle width="60" height="30" as="alternateBounds" />
          </mxGeometry>
        </mxCell>
        <mxCell id="1cZniwEfPOViycfA0ee5-7" value="trip_id int" style="shape=partialRectangle;connectable=0;fillColor=none;top=0;left=0;bottom=0;right=0;align=left;spacingLeft=6;fontStyle=5;overflow=hidden;html=1;whiteSpace=wrap;" vertex="1" parent="1cZniwEfPOViycfA0ee5-5">
          <mxGeometry x="60" width="120" height="30" as="geometry">
            <mxRectangle width="120" height="30" as="alternateBounds" />
          </mxGeometry>
        </mxCell>
        <mxCell id="tWnzQV2MsZGOmcHwL7dT-1" style="edgeStyle=orthogonalEdgeStyle;rounded=0;orthogonalLoop=1;jettySize=auto;html=1;exitX=1;exitY=0.5;exitDx=0;exitDy=0;entryX=0;entryY=0.5;entryDx=0;entryDy=0;endArrow=ERzeroToMany;endFill=0;startArrow=ERmandOne;startFill=0;" edge="1" parent="1" source="18aqK6TGE6kJljCHJmo9-2" target="1cZniwEfPOViycfA0ee5-2">
          <mxGeometry relative="1" as="geometry" />
        </mxCell>
        <mxCell id="bi9xl6LUQkHyFIDs4fyx-1" style="edgeStyle=orthogonalEdgeStyle;rounded=0;orthogonalLoop=1;jettySize=auto;html=1;exitX=0;exitY=0.5;exitDx=0;exitDy=0;entryX=1;entryY=0.5;entryDx=0;entryDy=0;endArrow=ERzeroToMany;endFill=0;startArrow=ERmandOne;startFill=0;" edge="1" parent="1" source="mFeoVfbQenEPNsyo3Xxm-2" target="1cZniwEfPOViycfA0ee5-5">
          <mxGeometry relative="1" as="geometry" />
        </mxCell>
        <mxCell id="aM083W8WKcPQbO9uNUR5-1" value="stop_lists" style="shape=table;startSize=30;container=1;collapsible=1;childLayout=tableLayout;fixedRows=1;rowLines=0;fontStyle=1;align=center;resizeLast=1;html=1;whiteSpace=wrap;" vertex="1" parent="1">
          <mxGeometry x="1320" y="522" width="180" height="90" as="geometry" />
        </mxCell>
        <mxCell id="aM083W8WKcPQbO9uNUR5-2" value="" style="shape=tableRow;horizontal=0;startSize=0;swimlaneHead=0;swimlaneBody=0;fillColor=none;collapsible=0;dropTarget=0;points=[[0,0.5],[1,0.5]];portConstraint=eastwest;top=0;left=0;right=0;bottom=0;html=1;" vertex="1" parent="aM083W8WKcPQbO9uNUR5-1">
          <mxGeometry y="30" width="180" height="30" as="geometry" />
        </mxCell>
        <mxCell id="aM083W8WKcPQbO9uNUR5-3" value="PK,FK1" style="shape=partialRectangle;connectable=0;fillColor=none;top=0;left=0;bottom=0;right=0;fontStyle=1;overflow=hidden;html=1;whiteSpace=wrap;" vertex="1" parent="aM083W8WKcPQbO9uNUR5-2">
          <mxGeometry width="60" height="30" as="geometry">
            <mxRectangle width="60" height="30" as="alternateBounds" />
          </mxGeometry>
        </mxCell>
        <mxCell id="aM083W8WKcPQbO9uNUR5-4" value="stop_id int" style="shape=partialRectangle;connectable=0;fillColor=none;top=0;left=0;bottom=0;right=0;align=left;spacingLeft=6;fontStyle=5;overflow=hidden;html=1;whiteSpace=wrap;" vertex="1" parent="aM083W8WKcPQbO9uNUR5-2">
          <mxGeometry x="60" width="120" height="30" as="geometry">
            <mxRectangle width="120" height="30" as="alternateBounds" />
          </mxGeometry>
        </mxCell>
        <mxCell id="aM083W8WKcPQbO9uNUR5-5" value="" style="shape=tableRow;horizontal=0;startSize=0;swimlaneHead=0;swimlaneBody=0;fillColor=none;collapsible=0;dropTarget=0;points=[[0,0.5],[1,0.5]];portConstraint=eastwest;top=0;left=0;right=0;bottom=1;html=1;" vertex="1" parent="aM083W8WKcPQbO9uNUR5-1">
          <mxGeometry y="60" width="180" height="30" as="geometry" />
        </mxCell>
        <mxCell id="aM083W8WKcPQbO9uNUR5-6" value="PK,FK2" style="shape=partialRectangle;connectable=0;fillColor=none;top=0;left=0;bottom=0;right=0;fontStyle=1;overflow=hidden;html=1;whiteSpace=wrap;" vertex="1" parent="aM083W8WKcPQbO9uNUR5-5">
          <mxGeometry width="60" height="30" as="geometry">
            <mxRectangle width="60" height="30" as="alternateBounds" />
          </mxGeometry>
        </mxCell>
        <mxCell id="aM083W8WKcPQbO9uNUR5-7" value="line_id int" style="shape=partialRectangle;connectable=0;fillColor=none;top=0;left=0;bottom=0;right=0;align=left;spacingLeft=6;fontStyle=5;overflow=hidden;html=1;whiteSpace=wrap;" vertex="1" parent="aM083W8WKcPQbO9uNUR5-5">
          <mxGeometry x="60" width="120" height="30" as="geometry">
            <mxRectangle width="120" height="30" as="alternateBounds" />
          </mxGeometry>
        </mxCell>
        <mxCell id="-4hBTI6lu9yDrB_Ka_RO-1" style="edgeStyle=orthogonalEdgeStyle;rounded=0;orthogonalLoop=1;jettySize=auto;html=1;exitX=1;exitY=0.5;exitDx=0;exitDy=0;entryX=0;entryY=0.5;entryDx=0;entryDy=0;endArrow=ERoneToMany;endFill=0;startArrow=ERmandOne;startFill=0;" edge="1" parent="1" source="7SmG_vtjaQL74Wixnx-c-2" target="aM083W8WKcPQbO9uNUR5-2">
          <mxGeometry relative="1" as="geometry" />
        </mxCell>
        <mxCell id="-4hBTI6lu9yDrB_Ka_RO-2" style="edgeStyle=orthogonalEdgeStyle;rounded=0;orthogonalLoop=1;jettySize=auto;html=1;exitX=0;exitY=0.5;exitDx=0;exitDy=0;entryX=1;entryY=0.5;entryDx=0;entryDy=0;endArrow=ERoneToMany;endFill=0;startArrow=ERmandOne;startFill=0;" edge="1" parent="1" source="0qebAsZMBjVa9KZ359Yl-2" target="aM083W8WKcPQbO9uNUR5-5">
          <mxGeometry relative="1" as="geometry" />
        </mxCell>
        <mxCell id="RMLL7-DVV2M8bgcUE2Ep-1" style="edgeStyle=orthogonalEdgeStyle;rounded=0;orthogonalLoop=1;jettySize=auto;html=1;exitX=0;exitY=0.5;exitDx=0;exitDy=0;entryX=1;entryY=0.5;entryDx=0;entryDy=0;endArrow=ERoneToMany;endFill=0;startArrow=ERmandOne;startFill=0;" edge="1" parent="1" source="aM083W8WKcPQbO9uNUR5-5" target="mFeoVfbQenEPNsyo3Xxm-11">
          <mxGeometry relative="1" as="geometry" />
        </mxCell>
      </root>
    </mxGraphModel>
  </diagram>
  <diagram id="3ARDUCy9kwivtK5QVlQX" name="metro-map">
    <mxGraphModel grid="1" page="1" gridSize="10" guides="1" tooltips="1" connect="1" arrows="1" fold="1" pageScale="1" pageWidth="1169" pageHeight="827" math="0" shadow="0">
      <root>
        <mxCell id="0" />
        <mxCell id="1" parent="0" />
        <mxCell id="Bj4iafkd9eeSY1qtoWKa-2" value="" style="endArrow=none;html=1;rounded=0;strokeWidth=5;fillColor=#1ba1e2;strokeColor=#006EAF;" edge="1" parent="1">
          <mxGeometry width="50" height="50" relative="1" as="geometry">
            <mxPoint x="21" y="79" as="sourcePoint" />
            <mxPoint x="1131" y="-361" as="targetPoint" />
            <Array as="points">
              <mxPoint x="211" y="79" />
              <mxPoint x="401" y="19" />
              <mxPoint x="531" y="-131" />
              <mxPoint x="691" y="-261" />
              <mxPoint x="831" y="-341" />
              <mxPoint x="961" y="-341" />
            </Array>
          </mxGeometry>
        </mxCell>
        <mxCell id="Bj4iafkd9eeSY1qtoWKa-3" value="" style="endArrow=none;html=1;rounded=0;strokeWidth=5;fillColor=#647687;strokeColor=#314354;" edge="1" parent="1">
          <mxGeometry width="50" height="50" relative="1" as="geometry">
            <mxPoint x="1151" y="99" as="sourcePoint" />
            <mxPoint x="22" y="-381" as="targetPoint" />
            <Array as="points">
              <mxPoint x="892" y="39" />
              <mxPoint x="762" y="-21" />
              <mxPoint x="582" y="-147" />
              <mxPoint x="522" y="-167" />
              <mxPoint x="392" y="-171" />
              <mxPoint x="202" y="-251" />
            </Array>
          </mxGeometry>
        </mxCell>
        <mxCell id="Bj4iafkd9eeSY1qtoWKa-4" value="" style="endArrow=none;html=1;rounded=0;strokeWidth=5;fillColor=#60a917;strokeColor=#2D7600;" edge="1" parent="1">
          <mxGeometry width="50" height="50" relative="1" as="geometry">
            <mxPoint x="1011" y="269" as="sourcePoint" />
            <mxPoint x="191" y="-641" as="targetPoint" />
            <Array as="points">
              <mxPoint x="821" y="269" />
              <mxPoint x="701" y="229" />
              <mxPoint x="555" y="89" />
              <mxPoint x="475" y="-111" />
              <mxPoint x="475" y="-281" />
              <mxPoint x="431" y="-431" />
              <mxPoint x="341" y="-551" />
            </Array>
          </mxGeometry>
        </mxCell>
        <mxCell id="Bj4iafkd9eeSY1qtoWKa-5" value="" style="endArrow=none;html=1;rounded=0;strokeWidth=5;fillColor=#d80073;strokeColor=#A50040;" edge="1" parent="1">
          <mxGeometry width="50" height="50" relative="1" as="geometry">
            <mxPoint x="41" y="259" as="sourcePoint" />
            <mxPoint x="841" y="-561" as="targetPoint" />
            <Array as="points">
              <mxPoint x="371" y="259" />
              <mxPoint x="561" y="189" />
              <mxPoint x="601" y="149" />
              <mxPoint x="631" y="69" />
              <mxPoint x="681" y="19" />
              <mxPoint x="751" y="-171" />
              <mxPoint x="771" y="-271" />
              <mxPoint x="761" y="-371" />
            </Array>
          </mxGeometry>
        </mxCell>
        <mxCell id="Bj4iafkd9eeSY1qtoWKa-18" value="5" style="ellipse;whiteSpace=wrap;html=1;aspect=fixed;" vertex="1" parent="1">
          <mxGeometry x="465" y="-179" width="20" height="20" as="geometry" />
        </mxCell>
        <mxCell id="Bj4iafkd9eeSY1qtoWKa-20" value="6" style="ellipse;whiteSpace=wrap;html=1;aspect=fixed;" vertex="1" parent="1">
          <mxGeometry x="551" y="-164" width="20" height="20" as="geometry" />
        </mxCell>
        <mxCell id="Bj4iafkd9eeSY1qtoWKa-22" value="17" style="ellipse;whiteSpace=wrap;html=1;aspect=fixed;" vertex="1" parent="1">
          <mxGeometry x="479" y="-89" width="20" height="20" as="geometry" />
        </mxCell>
        <mxCell id="Bj4iafkd9eeSY1qtoWKa-23" value="19" style="ellipse;whiteSpace=wrap;html=1;aspect=fixed;" vertex="1" parent="1">
          <mxGeometry x="595" y="127" width="20" height="20" as="geometry" />
        </mxCell>
        <mxCell id="Bj4iafkd9eeSY1qtoWKa-24" value="8" style="ellipse;whiteSpace=wrap;html=1;aspect=fixed;" vertex="1" parent="1">
          <mxGeometry x="698" y="-68" width="21" height="20" as="geometry" />
        </mxCell>
        <mxCell id="Bj4iafkd9eeSY1qtoWKa-25" value="28" style="ellipse;whiteSpace=wrap;html=1;aspect=fixed;" vertex="1" parent="1">
          <mxGeometry x="758" y="-316" width="20" height="20" as="geometry" />
        </mxCell>
        <mxCell id="Bj4iafkd9eeSY1qtoWKa-26" value="2" style="ellipse;whiteSpace=wrap;html=1;aspect=fixed;" vertex="1" parent="1">
          <mxGeometry x="138" y="-299" width="18" height="20" as="geometry" />
        </mxCell>
        <mxCell id="Bj4iafkd9eeSY1qtoWKa-28" value="3" style="ellipse;whiteSpace=wrap;html=1;aspect=fixed;" vertex="1" parent="1">
          <mxGeometry x="246" y="-239" width="20" height="20" as="geometry" />
        </mxCell>
        <mxCell id="Bj4iafkd9eeSY1qtoWKa-29" value="7" style="ellipse;whiteSpace=wrap;html=1;aspect=fixed;" vertex="1" parent="1">
          <mxGeometry x="625" y="-119" width="20" height="20" as="geometry" />
        </mxCell>
        <mxCell id="Bj4iafkd9eeSY1qtoWKa-30" value="4" style="ellipse;whiteSpace=wrap;html=1;aspect=fixed;" vertex="1" parent="1">
          <mxGeometry x="345" y="-199" width="20" height="20" as="geometry" />
        </mxCell>
        <mxCell id="Bj4iafkd9eeSY1qtoWKa-31" value="9" style="ellipse;whiteSpace=wrap;html=1;aspect=fixed;" vertex="1" parent="1">
          <mxGeometry x="785" y="-19" width="20" height="20" as="geometry" />
        </mxCell>
        <mxCell id="Bj4iafkd9eeSY1qtoWKa-32" value="10" style="ellipse;whiteSpace=wrap;html=1;aspect=fixed;" vertex="1" parent="1">
          <mxGeometry x="875" y="21" width="20" height="20" as="geometry" />
        </mxCell>
        <mxCell id="Bj4iafkd9eeSY1qtoWKa-33" value="11" style="ellipse;whiteSpace=wrap;html=1;aspect=fixed;" vertex="1" parent="1">
          <mxGeometry x="1005" y="59" width="20" height="20" as="geometry" />
        </mxCell>
        <mxCell id="Bj4iafkd9eeSY1qtoWKa-34" value="12" style="ellipse;whiteSpace=wrap;html=1;aspect=fixed;" vertex="1" parent="1">
          <mxGeometry x="1134" y="87" width="20" height="20" as="geometry" />
        </mxCell>
        <mxCell id="Bj4iafkd9eeSY1qtoWKa-35" value="15" style="ellipse;whiteSpace=wrap;html=1;aspect=fixed;" vertex="1" parent="1">
          <mxGeometry x="422" y="-440" width="20" height="20" as="geometry" />
        </mxCell>
        <mxCell id="Bj4iafkd9eeSY1qtoWKa-36" value="16" style="ellipse;whiteSpace=wrap;html=1;aspect=fixed;" vertex="1" parent="1">
          <mxGeometry x="465" y="-299" width="20" height="20" as="geometry" />
        </mxCell>
        <mxCell id="Bj4iafkd9eeSY1qtoWKa-37" value="18" style="ellipse;whiteSpace=wrap;html=1;aspect=fixed;" vertex="1" parent="1">
          <mxGeometry x="515" y="12" width="20" height="20" as="geometry" />
        </mxCell>
        <mxCell id="Bj4iafkd9eeSY1qtoWKa-38" value="20" style="ellipse;whiteSpace=wrap;html=1;aspect=fixed;" vertex="1" parent="1">
          <mxGeometry x="685" y="211" width="20" height="20" as="geometry" />
        </mxCell>
        <mxCell id="Bj4iafkd9eeSY1qtoWKa-39" value="21" style="ellipse;whiteSpace=wrap;html=1;aspect=fixed;" vertex="1" parent="1">
          <mxGeometry x="815" y="259" width="20" height="20" as="geometry" />
        </mxCell>
        <mxCell id="Bj4iafkd9eeSY1qtoWKa-40" value="22" style="ellipse;whiteSpace=wrap;html=1;aspect=fixed;" vertex="1" parent="1">
          <mxGeometry x="991" y="258" width="20" height="20" as="geometry" />
        </mxCell>
        <mxCell id="Bj4iafkd9eeSY1qtoWKa-42" value="1" style="ellipse;whiteSpace=wrap;html=1;aspect=fixed;" vertex="1" parent="1">
          <mxGeometry x="16" y="-388" width="20" height="20" as="geometry" />
        </mxCell>
        <mxCell id="Bj4iafkd9eeSY1qtoWKa-44" value="14" style="ellipse;whiteSpace=wrap;html=1;aspect=fixed;" vertex="1" parent="1">
          <mxGeometry x="327" y="-565" width="20" height="20" as="geometry" />
        </mxCell>
        <mxCell id="Bj4iafkd9eeSY1qtoWKa-45" value="13" style="ellipse;whiteSpace=wrap;html=1;aspect=fixed;" vertex="1" parent="1">
          <mxGeometry x="184" y="-650" width="20" height="20" as="geometry" />
        </mxCell>
        <mxCell id="Bj4iafkd9eeSY1qtoWKa-47" value="23" style="ellipse;whiteSpace=wrap;html=1;aspect=fixed;" vertex="1" parent="1">
          <mxGeometry x="15" y="67" width="20" height="20" as="geometry" />
        </mxCell>
        <mxCell id="Bj4iafkd9eeSY1qtoWKa-48" value="24" style="ellipse;whiteSpace=wrap;html=1;aspect=fixed;" vertex="1" parent="1">
          <mxGeometry x="156" y="65" width="20" height="20" as="geometry" />
        </mxCell>
        <mxCell id="Bj4iafkd9eeSY1qtoWKa-49" value="25" style="ellipse;whiteSpace=wrap;html=1;aspect=fixed;" vertex="1" parent="1">
          <mxGeometry x="293" y="38" width="20" height="20" as="geometry" />
        </mxCell>
        <mxCell id="Bj4iafkd9eeSY1qtoWKa-50" value="26" style="ellipse;whiteSpace=wrap;html=1;aspect=fixed;" vertex="1" parent="1">
          <mxGeometry x="408" y="-13" width="20" height="20" as="geometry" />
        </mxCell>
        <mxCell id="Bj4iafkd9eeSY1qtoWKa-51" value="27" style="ellipse;whiteSpace=wrap;html=1;aspect=fixed;" vertex="1" parent="1">
          <mxGeometry x="652" y="-247" width="20" height="20" as="geometry" />
        </mxCell>
        <mxCell id="Bj4iafkd9eeSY1qtoWKa-52" value="29" style="ellipse;whiteSpace=wrap;html=1;aspect=fixed;" vertex="1" parent="1">
          <mxGeometry x="866" y="-352" width="20" height="20" as="geometry" />
        </mxCell>
        <mxCell id="Bj4iafkd9eeSY1qtoWKa-53" value="31" style="ellipse;whiteSpace=wrap;html=1;aspect=fixed;" vertex="1" parent="1">
          <mxGeometry x="1115" y="-373" width="20" height="20" as="geometry" />
        </mxCell>
        <mxCell id="Bj4iafkd9eeSY1qtoWKa-54" value="30" style="ellipse;whiteSpace=wrap;html=1;aspect=fixed;" vertex="1" parent="1">
          <mxGeometry x="987" y="-357" width="20" height="20" as="geometry" />
        </mxCell>
        <mxCell id="Bj4iafkd9eeSY1qtoWKa-55" value="32" style="ellipse;whiteSpace=wrap;html=1;aspect=fixed;" vertex="1" parent="1">
          <mxGeometry x="35" y="249" width="20" height="20" as="geometry" />
        </mxCell>
        <mxCell id="Bj4iafkd9eeSY1qtoWKa-56" value="33" style="ellipse;whiteSpace=wrap;html=1;aspect=fixed;" vertex="1" parent="1">
          <mxGeometry x="165" y="249" width="20" height="20" as="geometry" />
        </mxCell>
        <mxCell id="Bj4iafkd9eeSY1qtoWKa-57" value="34" style="ellipse;whiteSpace=wrap;html=1;aspect=fixed;" vertex="1" parent="1">
          <mxGeometry x="302" y="249" width="20" height="20" as="geometry" />
        </mxCell>
        <mxCell id="Bj4iafkd9eeSY1qtoWKa-58" value="35" style="ellipse;whiteSpace=wrap;html=1;aspect=fixed;" vertex="1" parent="1">
          <mxGeometry x="424" y="228" width="20" height="20" as="geometry" />
        </mxCell>
        <mxCell id="Bj4iafkd9eeSY1qtoWKa-59" value="36" style="ellipse;whiteSpace=wrap;html=1;aspect=fixed;" vertex="1" parent="1">
          <mxGeometry x="524" y="188" width="20" height="20" as="geometry" />
        </mxCell>
        <mxCell id="Bj4iafkd9eeSY1qtoWKa-60" value="37" style="ellipse;whiteSpace=wrap;html=1;aspect=fixed;" vertex="1" parent="1">
          <mxGeometry x="652" y="30" width="20" height="20" as="geometry" />
        </mxCell>
        <mxCell id="Bj4iafkd9eeSY1qtoWKa-61" value="38" style="ellipse;whiteSpace=wrap;html=1;aspect=fixed;" vertex="1" parent="1">
          <mxGeometry x="742" y="-180" width="20" height="20" as="geometry" />
        </mxCell>
        <mxCell id="Bj4iafkd9eeSY1qtoWKa-62" value="39" style="ellipse;whiteSpace=wrap;html=1;aspect=fixed;" vertex="1" parent="1">
          <mxGeometry x="777" y="-444" width="20" height="20" as="geometry" />
        </mxCell>
        <mxCell id="Bj4iafkd9eeSY1qtoWKa-63" value="40" style="ellipse;whiteSpace=wrap;html=1;aspect=fixed;" vertex="1" parent="1">
          <mxGeometry x="831" y="-569" width="20" height="20" as="geometry" />
        </mxCell>
        <mxCell id="Bj4iafkd9eeSY1qtoWKa-115" value="" style="shape=table;startSize=0;container=1;collapsible=0;childLayout=tableLayout;" vertex="1" parent="1">
          <mxGeometry x="37" y="373" width="820" height="394" as="geometry" />
        </mxCell>
        <mxCell id="Bj4iafkd9eeSY1qtoWKa-116" value="" style="shape=tableRow;horizontal=0;startSize=0;swimlaneHead=0;swimlaneBody=0;strokeColor=inherit;top=0;left=0;bottom=0;right=0;collapsible=0;dropTarget=0;fillColor=none;points=[[0,0.5],[1,0.5]];portConstraint=eastwest;" vertex="1" parent="Bj4iafkd9eeSY1qtoWKa-115">
          <mxGeometry width="820" height="40" as="geometry" />
        </mxCell>
        <mxCell id="Bj4iafkd9eeSY1qtoWKa-117" value="1" style="shape=partialRectangle;html=1;whiteSpace=wrap;connectable=0;strokeColor=inherit;overflow=hidden;fillColor=#fad9d5;top=0;left=0;bottom=0;right=0;pointerEvents=1;" vertex="1" parent="Bj4iafkd9eeSY1qtoWKa-116">
          <mxGeometry width="50" height="40" as="geometry">
            <mxRectangle width="50" height="40" as="alternateBounds" />
          </mxGeometry>
        </mxCell>
        <mxCell id="Bj4iafkd9eeSY1qtoWKa-118" value="Hydrangea Stop" style="shape=partialRectangle;html=1;whiteSpace=wrap;connectable=0;strokeColor=inherit;overflow=hidden;fillColor=none;top=0;left=0;bottom=0;right=0;pointerEvents=1;" vertex="1" parent="Bj4iafkd9eeSY1qtoWKa-116">
          <mxGeometry x="50" width="155" height="40" as="geometry">
            <mxRectangle width="155" height="40" as="alternateBounds" />
          </mxGeometry>
        </mxCell>
        <mxCell id="Bj4iafkd9eeSY1qtoWKa-119" value="11" style="shape=partialRectangle;html=1;whiteSpace=wrap;connectable=0;strokeColor=#ae4132;overflow=hidden;fillColor=#fad9d5;top=0;left=0;bottom=0;right=0;pointerEvents=1;" vertex="1" parent="Bj4iafkd9eeSY1qtoWKa-116">
          <mxGeometry x="205" width="45" height="40" as="geometry">
            <mxRectangle width="45" height="40" as="alternateBounds" />
          </mxGeometry>
        </mxCell>
        <mxCell id="Bj4iafkd9eeSY1qtoWKa-120" value="Cherry Blossom Stop" style="shape=partialRectangle;html=1;whiteSpace=wrap;connectable=0;strokeColor=inherit;overflow=hidden;fillColor=none;top=0;left=0;bottom=0;right=0;pointerEvents=1;" vertex="1" parent="Bj4iafkd9eeSY1qtoWKa-116">
          <mxGeometry x="250" width="162" height="40" as="geometry">
            <mxRectangle width="162" height="40" as="alternateBounds" />
          </mxGeometry>
        </mxCell>
        <mxCell id="Bj4iafkd9eeSY1qtoWKa-121" value="21" style="shape=partialRectangle;html=1;whiteSpace=wrap;connectable=0;strokeColor=#ae4132;overflow=hidden;fillColor=#fad9d5;top=0;left=0;bottom=0;right=0;pointerEvents=1;" vertex="1" parent="Bj4iafkd9eeSY1qtoWKa-116">
          <mxGeometry x="412" width="48" height="40" as="geometry">
            <mxRectangle width="48" height="40" as="alternateBounds" />
          </mxGeometry>
        </mxCell>
        <mxCell id="Bj4iafkd9eeSY1qtoWKa-122" value="Snowflake Stop" style="shape=partialRectangle;html=1;whiteSpace=wrap;connectable=0;strokeColor=inherit;overflow=hidden;fillColor=none;top=0;left=0;bottom=0;right=0;pointerEvents=1;" vertex="1" parent="Bj4iafkd9eeSY1qtoWKa-116">
          <mxGeometry x="460" width="155" height="40" as="geometry">
            <mxRectangle width="155" height="40" as="alternateBounds" />
          </mxGeometry>
        </mxCell>
        <mxCell id="Bj4iafkd9eeSY1qtoWKa-123" value="31" style="shape=partialRectangle;html=1;whiteSpace=wrap;connectable=0;strokeColor=#ae4132;overflow=hidden;fillColor=#fad9d5;top=0;left=0;bottom=0;right=0;pointerEvents=1;" vertex="1" parent="Bj4iafkd9eeSY1qtoWKa-116">
          <mxGeometry x="615" width="45" height="40" as="geometry">
            <mxRectangle width="45" height="40" as="alternateBounds" />
          </mxGeometry>
        </mxCell>
        <mxCell id="Bj4iafkd9eeSY1qtoWKa-124" value="Anemone Stop" style="shape=partialRectangle;html=1;whiteSpace=wrap;connectable=0;strokeColor=inherit;overflow=hidden;fillColor=none;top=0;left=0;bottom=0;right=0;pointerEvents=1;" vertex="1" parent="Bj4iafkd9eeSY1qtoWKa-116">
          <mxGeometry x="660" width="160" height="40" as="geometry">
            <mxRectangle width="160" height="40" as="alternateBounds" />
          </mxGeometry>
        </mxCell>
        <mxCell id="Bj4iafkd9eeSY1qtoWKa-125" value="" style="shape=tableRow;horizontal=0;startSize=0;swimlaneHead=0;swimlaneBody=0;strokeColor=inherit;top=0;left=0;bottom=0;right=0;collapsible=0;dropTarget=0;fillColor=none;points=[[0,0.5],[1,0.5]];portConstraint=eastwest;" vertex="1" parent="Bj4iafkd9eeSY1qtoWKa-115">
          <mxGeometry y="40" width="820" height="37" as="geometry" />
        </mxCell>
        <mxCell id="Bj4iafkd9eeSY1qtoWKa-126" value="2" style="shape=partialRectangle;html=1;whiteSpace=wrap;connectable=0;strokeColor=#ae4132;overflow=hidden;fillColor=#fad9d5;top=0;left=0;bottom=0;right=0;pointerEvents=1;" vertex="1" parent="Bj4iafkd9eeSY1qtoWKa-125">
          <mxGeometry width="50" height="37" as="geometry">
            <mxRectangle width="50" height="37" as="alternateBounds" />
          </mxGeometry>
        </mxCell>
        <mxCell id="Bj4iafkd9eeSY1qtoWKa-127" value="Magnolia Stop" style="shape=partialRectangle;html=1;whiteSpace=wrap;connectable=0;strokeColor=inherit;overflow=hidden;fillColor=none;top=0;left=0;bottom=0;right=0;pointerEvents=1;" vertex="1" parent="Bj4iafkd9eeSY1qtoWKa-125">
          <mxGeometry x="50" width="155" height="37" as="geometry">
            <mxRectangle width="155" height="37" as="alternateBounds" />
          </mxGeometry>
        </mxCell>
        <mxCell id="Bj4iafkd9eeSY1qtoWKa-128" value="12" style="shape=partialRectangle;html=1;whiteSpace=wrap;connectable=0;strokeColor=#ae4132;overflow=hidden;fillColor=#fad9d5;top=0;left=0;bottom=0;right=0;pointerEvents=1;" vertex="1" parent="Bj4iafkd9eeSY1qtoWKa-125">
          <mxGeometry x="205" width="45" height="37" as="geometry">
            <mxRectangle width="45" height="37" as="alternateBounds" />
          </mxGeometry>
        </mxCell>
        <mxCell id="Bj4iafkd9eeSY1qtoWKa-129" value="Snowdrop Stop" style="shape=partialRectangle;html=1;whiteSpace=wrap;connectable=0;strokeColor=inherit;overflow=hidden;fillColor=none;top=0;left=0;bottom=0;right=0;pointerEvents=1;" vertex="1" parent="Bj4iafkd9eeSY1qtoWKa-125">
          <mxGeometry x="250" width="162" height="37" as="geometry">
            <mxRectangle width="162" height="37" as="alternateBounds" />
          </mxGeometry>
        </mxCell>
        <mxCell id="Bj4iafkd9eeSY1qtoWKa-130" value="22" style="shape=partialRectangle;html=1;whiteSpace=wrap;connectable=0;strokeColor=#ae4132;overflow=hidden;fillColor=#fad9d5;top=0;left=0;bottom=0;right=0;pointerEvents=1;" vertex="1" parent="Bj4iafkd9eeSY1qtoWKa-125">
          <mxGeometry x="412" width="48" height="37" as="geometry">
            <mxRectangle width="48" height="37" as="alternateBounds" />
          </mxGeometry>
        </mxCell>
        <mxCell id="Bj4iafkd9eeSY1qtoWKa-131" value="Tulip Stop" style="shape=partialRectangle;html=1;whiteSpace=wrap;connectable=0;strokeColor=inherit;overflow=hidden;fillColor=none;top=0;left=0;bottom=0;right=0;pointerEvents=1;" vertex="1" parent="Bj4iafkd9eeSY1qtoWKa-125">
          <mxGeometry x="460" width="155" height="37" as="geometry">
            <mxRectangle width="155" height="37" as="alternateBounds" />
          </mxGeometry>
        </mxCell>
        <mxCell id="Bj4iafkd9eeSY1qtoWKa-132" value="32" style="shape=partialRectangle;html=1;whiteSpace=wrap;connectable=0;strokeColor=#ae4132;overflow=hidden;fillColor=#fad9d5;top=0;left=0;bottom=0;right=0;pointerEvents=1;" vertex="1" parent="Bj4iafkd9eeSY1qtoWKa-125">
          <mxGeometry x="615" width="45" height="37" as="geometry">
            <mxRectangle width="45" height="37" as="alternateBounds" />
          </mxGeometry>
        </mxCell>
        <mxCell id="Bj4iafkd9eeSY1qtoWKa-133" value="Petunia Stop" style="shape=partialRectangle;html=1;whiteSpace=wrap;connectable=0;strokeColor=inherit;overflow=hidden;fillColor=none;top=0;left=0;bottom=0;right=0;pointerEvents=1;" vertex="1" parent="Bj4iafkd9eeSY1qtoWKa-125">
          <mxGeometry x="660" width="160" height="37" as="geometry">
            <mxRectangle width="160" height="37" as="alternateBounds" />
          </mxGeometry>
        </mxCell>
        <mxCell id="Bj4iafkd9eeSY1qtoWKa-134" value="" style="shape=tableRow;horizontal=0;startSize=0;swimlaneHead=0;swimlaneBody=0;strokeColor=inherit;top=0;left=0;bottom=0;right=0;collapsible=0;dropTarget=0;fillColor=none;points=[[0,0.5],[1,0.5]];portConstraint=eastwest;" vertex="1" parent="Bj4iafkd9eeSY1qtoWKa-115">
          <mxGeometry y="77" width="820" height="37" as="geometry" />
        </mxCell>
        <mxCell id="Bj4iafkd9eeSY1qtoWKa-135" value="3" style="shape=partialRectangle;html=1;whiteSpace=wrap;connectable=0;strokeColor=#ae4132;overflow=hidden;fillColor=#fad9d5;top=0;left=0;bottom=0;right=0;pointerEvents=1;" vertex="1" parent="Bj4iafkd9eeSY1qtoWKa-134">
          <mxGeometry width="50" height="37" as="geometry">
            <mxRectangle width="50" height="37" as="alternateBounds" />
          </mxGeometry>
        </mxCell>
        <mxCell id="Bj4iafkd9eeSY1qtoWKa-136" value="Sunflower Stop" style="shape=partialRectangle;html=1;whiteSpace=wrap;connectable=0;strokeColor=inherit;overflow=hidden;fillColor=none;top=0;left=0;bottom=0;right=0;pointerEvents=1;" vertex="1" parent="Bj4iafkd9eeSY1qtoWKa-134">
          <mxGeometry x="50" width="155" height="37" as="geometry">
            <mxRectangle width="155" height="37" as="alternateBounds" />
          </mxGeometry>
        </mxCell>
        <mxCell id="Bj4iafkd9eeSY1qtoWKa-137" value="13" style="shape=partialRectangle;html=1;whiteSpace=wrap;connectable=0;strokeColor=#ae4132;overflow=hidden;fillColor=#fad9d5;top=0;left=0;bottom=0;right=0;pointerEvents=1;" vertex="1" parent="Bj4iafkd9eeSY1qtoWKa-134">
          <mxGeometry x="205" width="45" height="37" as="geometry">
            <mxRectangle width="45" height="37" as="alternateBounds" />
          </mxGeometry>
        </mxCell>
        <mxCell id="Bj4iafkd9eeSY1qtoWKa-138" value="Daisy Stop" style="shape=partialRectangle;html=1;whiteSpace=wrap;connectable=0;strokeColor=inherit;overflow=hidden;fillColor=none;top=0;left=0;bottom=0;right=0;pointerEvents=1;" vertex="1" parent="Bj4iafkd9eeSY1qtoWKa-134">
          <mxGeometry x="250" width="162" height="37" as="geometry">
            <mxRectangle width="162" height="37" as="alternateBounds" />
          </mxGeometry>
        </mxCell>
        <mxCell id="Bj4iafkd9eeSY1qtoWKa-139" value="23" style="shape=partialRectangle;html=1;whiteSpace=wrap;connectable=0;strokeColor=#ae4132;overflow=hidden;fillColor=#fad9d5;top=0;left=0;bottom=0;right=0;pointerEvents=1;" vertex="1" parent="Bj4iafkd9eeSY1qtoWKa-134">
          <mxGeometry x="412" width="48" height="37" as="geometry">
            <mxRectangle width="48" height="37" as="alternateBounds" />
          </mxGeometry>
        </mxCell>
        <mxCell id="Bj4iafkd9eeSY1qtoWKa-140" value="Spider Lily Stop" style="shape=partialRectangle;html=1;whiteSpace=wrap;connectable=0;strokeColor=inherit;overflow=hidden;fillColor=none;top=0;left=0;bottom=0;right=0;pointerEvents=1;" vertex="1" parent="Bj4iafkd9eeSY1qtoWKa-134">
          <mxGeometry x="460" width="155" height="37" as="geometry">
            <mxRectangle width="155" height="37" as="alternateBounds" />
          </mxGeometry>
        </mxCell>
        <mxCell id="Bj4iafkd9eeSY1qtoWKa-141" value="33" style="shape=partialRectangle;html=1;whiteSpace=wrap;connectable=0;strokeColor=#ae4132;overflow=hidden;fillColor=#fad9d5;top=0;left=0;bottom=0;right=0;pointerEvents=1;" vertex="1" parent="Bj4iafkd9eeSY1qtoWKa-134">
          <mxGeometry x="615" width="45" height="37" as="geometry">
            <mxRectangle width="45" height="37" as="alternateBounds" />
          </mxGeometry>
        </mxCell>
        <mxCell id="Bj4iafkd9eeSY1qtoWKa-142" value="Sweet Pea Stop" style="shape=partialRectangle;html=1;whiteSpace=wrap;connectable=0;strokeColor=inherit;overflow=hidden;fillColor=none;top=0;left=0;bottom=0;right=0;pointerEvents=1;" vertex="1" parent="Bj4iafkd9eeSY1qtoWKa-134">
          <mxGeometry x="660" width="160" height="37" as="geometry">
            <mxRectangle width="160" height="37" as="alternateBounds" />
          </mxGeometry>
        </mxCell>
        <mxCell id="Bj4iafkd9eeSY1qtoWKa-143" value="" style="shape=tableRow;horizontal=0;startSize=0;swimlaneHead=0;swimlaneBody=0;strokeColor=inherit;top=0;left=0;bottom=0;right=0;collapsible=0;dropTarget=0;fillColor=none;points=[[0,0.5],[1,0.5]];portConstraint=eastwest;" vertex="1" parent="Bj4iafkd9eeSY1qtoWKa-115">
          <mxGeometry y="114" width="820" height="40" as="geometry" />
        </mxCell>
        <mxCell id="Bj4iafkd9eeSY1qtoWKa-144" value="4" style="shape=partialRectangle;html=1;whiteSpace=wrap;connectable=0;strokeColor=#ae4132;overflow=hidden;fillColor=#fad9d5;top=0;left=0;bottom=0;right=0;pointerEvents=1;" vertex="1" parent="Bj4iafkd9eeSY1qtoWKa-143">
          <mxGeometry width="50" height="40" as="geometry">
            <mxRectangle width="50" height="40" as="alternateBounds" />
          </mxGeometry>
        </mxCell>
        <mxCell id="Bj4iafkd9eeSY1qtoWKa-145" value="Orchid Stop" style="shape=partialRectangle;html=1;whiteSpace=wrap;connectable=0;strokeColor=inherit;overflow=hidden;fillColor=none;top=0;left=0;bottom=0;right=0;pointerEvents=1;" vertex="1" parent="Bj4iafkd9eeSY1qtoWKa-143">
          <mxGeometry x="50" width="155" height="40" as="geometry">
            <mxRectangle width="155" height="40" as="alternateBounds" />
          </mxGeometry>
        </mxCell>
        <mxCell id="Bj4iafkd9eeSY1qtoWKa-146" value="14" style="shape=partialRectangle;html=1;whiteSpace=wrap;connectable=0;strokeColor=#ae4132;overflow=hidden;fillColor=#fad9d5;top=0;left=0;bottom=0;right=0;pointerEvents=1;" vertex="1" parent="Bj4iafkd9eeSY1qtoWKa-143">
          <mxGeometry x="205" width="45" height="40" as="geometry">
            <mxRectangle width="45" height="40" as="alternateBounds" />
          </mxGeometry>
        </mxCell>
        <mxCell id="Bj4iafkd9eeSY1qtoWKa-147" value="Amaryllis Stop" style="shape=partialRectangle;html=1;whiteSpace=wrap;connectable=0;strokeColor=inherit;overflow=hidden;fillColor=none;top=0;left=0;bottom=0;right=0;pointerEvents=1;" vertex="1" parent="Bj4iafkd9eeSY1qtoWKa-143">
          <mxGeometry x="250" width="162" height="40" as="geometry">
            <mxRectangle width="162" height="40" as="alternateBounds" />
          </mxGeometry>
        </mxCell>
        <mxCell id="Bj4iafkd9eeSY1qtoWKa-148" value="24" style="shape=partialRectangle;html=1;whiteSpace=wrap;connectable=0;strokeColor=#ae4132;overflow=hidden;fillColor=#fad9d5;top=0;left=0;bottom=0;right=0;pointerEvents=1;" vertex="1" parent="Bj4iafkd9eeSY1qtoWKa-143">
          <mxGeometry x="412" width="48" height="40" as="geometry">
            <mxRectangle width="48" height="40" as="alternateBounds" />
          </mxGeometry>
        </mxCell>
        <mxCell id="Bj4iafkd9eeSY1qtoWKa-149" value="Cosmos Stop" style="shape=partialRectangle;html=1;whiteSpace=wrap;connectable=0;strokeColor=inherit;overflow=hidden;fillColor=none;top=0;left=0;bottom=0;right=0;pointerEvents=1;" vertex="1" parent="Bj4iafkd9eeSY1qtoWKa-143">
          <mxGeometry x="460" width="155" height="40" as="geometry">
            <mxRectangle width="155" height="40" as="alternateBounds" />
          </mxGeometry>
        </mxCell>
        <mxCell id="Bj4iafkd9eeSY1qtoWKa-150" value="34" style="shape=partialRectangle;html=1;whiteSpace=wrap;connectable=0;strokeColor=#ae4132;overflow=hidden;fillColor=#fad9d5;top=0;left=0;bottom=0;right=0;pointerEvents=1;" vertex="1" parent="Bj4iafkd9eeSY1qtoWKa-143">
          <mxGeometry x="615" width="45" height="40" as="geometry">
            <mxRectangle width="45" height="40" as="alternateBounds" />
          </mxGeometry>
        </mxCell>
        <mxCell id="Bj4iafkd9eeSY1qtoWKa-151" value="Passionflower Stop" style="shape=partialRectangle;html=1;whiteSpace=wrap;connectable=0;strokeColor=inherit;overflow=hidden;fillColor=none;top=0;left=0;bottom=0;right=0;pointerEvents=1;" vertex="1" parent="Bj4iafkd9eeSY1qtoWKa-143">
          <mxGeometry x="660" width="160" height="40" as="geometry">
            <mxRectangle width="160" height="40" as="alternateBounds" />
          </mxGeometry>
        </mxCell>
        <mxCell id="Bj4iafkd9eeSY1qtoWKa-152" value="" style="shape=tableRow;horizontal=0;startSize=0;swimlaneHead=0;swimlaneBody=0;strokeColor=inherit;top=0;left=0;bottom=0;right=0;collapsible=0;dropTarget=0;fillColor=none;points=[[0,0.5],[1,0.5]];portConstraint=eastwest;" vertex="1" parent="Bj4iafkd9eeSY1qtoWKa-115">
          <mxGeometry y="154" width="820" height="40" as="geometry" />
        </mxCell>
        <mxCell id="Bj4iafkd9eeSY1qtoWKa-153" value="5" style="shape=partialRectangle;html=1;whiteSpace=wrap;connectable=0;strokeColor=#ae4132;overflow=hidden;fillColor=#fad9d5;top=0;left=0;bottom=0;right=0;pointerEvents=1;" vertex="1" parent="Bj4iafkd9eeSY1qtoWKa-152">
          <mxGeometry width="50" height="40" as="geometry">
            <mxRectangle width="50" height="40" as="alternateBounds" />
          </mxGeometry>
        </mxCell>
        <mxCell id="Bj4iafkd9eeSY1qtoWKa-154" value="Jasmine Stop" style="shape=partialRectangle;html=1;whiteSpace=wrap;connectable=0;strokeColor=inherit;overflow=hidden;fillColor=none;top=0;left=0;bottom=0;right=0;pointerEvents=1;" vertex="1" parent="Bj4iafkd9eeSY1qtoWKa-152">
          <mxGeometry x="50" width="155" height="40" as="geometry">
            <mxRectangle width="155" height="40" as="alternateBounds" />
          </mxGeometry>
        </mxCell>
        <mxCell id="Bj4iafkd9eeSY1qtoWKa-155" value="15" style="shape=partialRectangle;html=1;whiteSpace=wrap;connectable=0;strokeColor=#ae4132;overflow=hidden;fillColor=#fad9d5;top=0;left=0;bottom=0;right=0;pointerEvents=1;" vertex="1" parent="Bj4iafkd9eeSY1qtoWKa-152">
          <mxGeometry x="205" width="45" height="40" as="geometry">
            <mxRectangle width="45" height="40" as="alternateBounds" />
          </mxGeometry>
        </mxCell>
        <mxCell id="Bj4iafkd9eeSY1qtoWKa-156" value="Bellflower Stop" style="shape=partialRectangle;html=1;whiteSpace=wrap;connectable=0;strokeColor=inherit;overflow=hidden;fillColor=none;top=0;left=0;bottom=0;right=0;pointerEvents=1;" vertex="1" parent="Bj4iafkd9eeSY1qtoWKa-152">
          <mxGeometry x="250" width="162" height="40" as="geometry">
            <mxRectangle width="162" height="40" as="alternateBounds" />
          </mxGeometry>
        </mxCell>
        <mxCell id="Bj4iafkd9eeSY1qtoWKa-157" value="25" style="shape=partialRectangle;html=1;whiteSpace=wrap;connectable=0;strokeColor=#ae4132;overflow=hidden;fillColor=#fad9d5;top=0;left=0;bottom=0;right=0;pointerEvents=1;" vertex="1" parent="Bj4iafkd9eeSY1qtoWKa-152">
          <mxGeometry x="412" width="48" height="40" as="geometry">
            <mxRectangle width="48" height="40" as="alternateBounds" />
          </mxGeometry>
        </mxCell>
        <mxCell id="Bj4iafkd9eeSY1qtoWKa-158" value="Lantana Stop" style="shape=partialRectangle;html=1;whiteSpace=wrap;connectable=0;strokeColor=inherit;overflow=hidden;fillColor=none;top=0;left=0;bottom=0;right=0;pointerEvents=1;" vertex="1" parent="Bj4iafkd9eeSY1qtoWKa-152">
          <mxGeometry x="460" width="155" height="40" as="geometry">
            <mxRectangle width="155" height="40" as="alternateBounds" />
          </mxGeometry>
        </mxCell>
        <mxCell id="Bj4iafkd9eeSY1qtoWKa-159" value="35" style="shape=partialRectangle;html=1;whiteSpace=wrap;connectable=0;strokeColor=#ae4132;overflow=hidden;fillColor=#fad9d5;top=0;left=0;bottom=0;right=0;pointerEvents=1;" vertex="1" parent="Bj4iafkd9eeSY1qtoWKa-152">
          <mxGeometry x="615" width="45" height="40" as="geometry">
            <mxRectangle width="45" height="40" as="alternateBounds" />
          </mxGeometry>
        </mxCell>
        <mxCell id="Bj4iafkd9eeSY1qtoWKa-160" value="Canna Stop" style="shape=partialRectangle;html=1;whiteSpace=wrap;connectable=0;strokeColor=inherit;overflow=hidden;fillColor=none;top=0;left=0;bottom=0;right=0;pointerEvents=1;" vertex="1" parent="Bj4iafkd9eeSY1qtoWKa-152">
          <mxGeometry x="660" width="160" height="40" as="geometry">
            <mxRectangle width="160" height="40" as="alternateBounds" />
          </mxGeometry>
        </mxCell>
        <mxCell id="Bj4iafkd9eeSY1qtoWKa-161" value="" style="shape=tableRow;horizontal=0;startSize=0;swimlaneHead=0;swimlaneBody=0;strokeColor=inherit;top=0;left=0;bottom=0;right=0;collapsible=0;dropTarget=0;fillColor=none;points=[[0,0.5],[1,0.5]];portConstraint=eastwest;" vertex="1" parent="Bj4iafkd9eeSY1qtoWKa-115">
          <mxGeometry y="194" width="820" height="40" as="geometry" />
        </mxCell>
        <mxCell id="Bj4iafkd9eeSY1qtoWKa-162" value="6" style="shape=partialRectangle;html=1;whiteSpace=wrap;connectable=0;strokeColor=#ae4132;overflow=hidden;fillColor=#fad9d5;top=0;left=0;bottom=0;right=0;pointerEvents=1;" vertex="1" parent="Bj4iafkd9eeSY1qtoWKa-161">
          <mxGeometry width="50" height="40" as="geometry">
            <mxRectangle width="50" height="40" as="alternateBounds" />
          </mxGeometry>
        </mxCell>
        <mxCell id="Bj4iafkd9eeSY1qtoWKa-163" value="Freesia Stop" style="shape=partialRectangle;html=1;whiteSpace=wrap;connectable=0;strokeColor=inherit;overflow=hidden;fillColor=none;top=0;left=0;bottom=0;right=0;pointerEvents=1;" vertex="1" parent="Bj4iafkd9eeSY1qtoWKa-161">
          <mxGeometry x="50" width="155" height="40" as="geometry">
            <mxRectangle width="155" height="40" as="alternateBounds" />
          </mxGeometry>
        </mxCell>
        <mxCell id="Bj4iafkd9eeSY1qtoWKa-164" value="16" style="shape=partialRectangle;html=1;whiteSpace=wrap;connectable=0;strokeColor=#ae4132;overflow=hidden;fillColor=#fad9d5;top=0;left=0;bottom=0;right=0;pointerEvents=1;" vertex="1" parent="Bj4iafkd9eeSY1qtoWKa-161">
          <mxGeometry x="205" width="45" height="40" as="geometry">
            <mxRectangle width="45" height="40" as="alternateBounds" />
          </mxGeometry>
        </mxCell>
        <mxCell id="Bj4iafkd9eeSY1qtoWKa-165" value="Water Lily Stop" style="shape=partialRectangle;html=1;whiteSpace=wrap;connectable=0;strokeColor=inherit;overflow=hidden;fillColor=none;top=0;left=0;bottom=0;right=0;pointerEvents=1;" vertex="1" parent="Bj4iafkd9eeSY1qtoWKa-161">
          <mxGeometry x="250" width="162" height="40" as="geometry">
            <mxRectangle width="162" height="40" as="alternateBounds" />
          </mxGeometry>
        </mxCell>
        <mxCell id="Bj4iafkd9eeSY1qtoWKa-166" value="26" style="shape=partialRectangle;html=1;whiteSpace=wrap;connectable=0;strokeColor=#ae4132;overflow=hidden;fillColor=#fad9d5;top=0;left=0;bottom=0;right=0;pointerEvents=1;" vertex="1" parent="Bj4iafkd9eeSY1qtoWKa-161">
          <mxGeometry x="412" width="48" height="40" as="geometry">
            <mxRectangle width="48" height="40" as="alternateBounds" />
          </mxGeometry>
        </mxCell>
        <mxCell id="Bj4iafkd9eeSY1qtoWKa-167" value="Balloon Flower Stop" style="shape=partialRectangle;html=1;whiteSpace=wrap;connectable=0;strokeColor=inherit;overflow=hidden;fillColor=none;top=0;left=0;bottom=0;right=0;pointerEvents=1;" vertex="1" parent="Bj4iafkd9eeSY1qtoWKa-161">
          <mxGeometry x="460" width="155" height="40" as="geometry">
            <mxRectangle width="155" height="40" as="alternateBounds" />
          </mxGeometry>
        </mxCell>
        <mxCell id="Bj4iafkd9eeSY1qtoWKa-168" value="36" style="shape=partialRectangle;html=1;whiteSpace=wrap;connectable=0;strokeColor=#ae4132;overflow=hidden;fillColor=#fad9d5;top=0;left=0;bottom=0;right=0;pointerEvents=1;" vertex="1" parent="Bj4iafkd9eeSY1qtoWKa-161">
          <mxGeometry x="615" width="45" height="40" as="geometry">
            <mxRectangle width="45" height="40" as="alternateBounds" />
          </mxGeometry>
        </mxCell>
        <mxCell id="Bj4iafkd9eeSY1qtoWKa-169" value="Tuberose Stop" style="shape=partialRectangle;html=1;whiteSpace=wrap;connectable=0;strokeColor=inherit;overflow=hidden;fillColor=none;top=0;left=0;bottom=0;right=0;pointerEvents=1;" vertex="1" parent="Bj4iafkd9eeSY1qtoWKa-161">
          <mxGeometry x="660" width="160" height="40" as="geometry">
            <mxRectangle width="160" height="40" as="alternateBounds" />
          </mxGeometry>
        </mxCell>
        <mxCell id="Bj4iafkd9eeSY1qtoWKa-170" value="" style="shape=tableRow;horizontal=0;startSize=0;swimlaneHead=0;swimlaneBody=0;strokeColor=inherit;top=0;left=0;bottom=0;right=0;collapsible=0;dropTarget=0;fillColor=none;points=[[0,0.5],[1,0.5]];portConstraint=eastwest;" vertex="1" parent="Bj4iafkd9eeSY1qtoWKa-115">
          <mxGeometry y="234" width="820" height="40" as="geometry" />
        </mxCell>
        <mxCell id="Bj4iafkd9eeSY1qtoWKa-171" value="7" style="shape=partialRectangle;html=1;whiteSpace=wrap;connectable=0;strokeColor=#ae4132;overflow=hidden;fillColor=#fad9d5;top=0;left=0;bottom=0;right=0;pointerEvents=1;" vertex="1" parent="Bj4iafkd9eeSY1qtoWKa-170">
          <mxGeometry width="50" height="40" as="geometry">
            <mxRectangle width="50" height="40" as="alternateBounds" />
          </mxGeometry>
        </mxCell>
        <mxCell id="Bj4iafkd9eeSY1qtoWKa-172" value="Camellia Stop" style="shape=partialRectangle;html=1;whiteSpace=wrap;connectable=0;strokeColor=inherit;overflow=hidden;fillColor=none;top=0;left=0;bottom=0;right=0;pointerEvents=1;" vertex="1" parent="Bj4iafkd9eeSY1qtoWKa-170">
          <mxGeometry x="50" width="155" height="40" as="geometry">
            <mxRectangle width="155" height="40" as="alternateBounds" />
          </mxGeometry>
        </mxCell>
        <mxCell id="Bj4iafkd9eeSY1qtoWKa-173" value="17" style="shape=partialRectangle;html=1;whiteSpace=wrap;connectable=0;strokeColor=#ae4132;overflow=hidden;fillColor=#fad9d5;top=0;left=0;bottom=0;right=0;pointerEvents=1;" vertex="1" parent="Bj4iafkd9eeSY1qtoWKa-170">
          <mxGeometry x="205" width="45" height="40" as="geometry">
            <mxRectangle width="45" height="40" as="alternateBounds" />
          </mxGeometry>
        </mxCell>
        <mxCell id="Bj4iafkd9eeSY1qtoWKa-174" value="Catmint Stop" style="shape=partialRectangle;html=1;whiteSpace=wrap;connectable=0;strokeColor=inherit;overflow=hidden;fillColor=none;top=0;left=0;bottom=0;right=0;pointerEvents=1;" vertex="1" parent="Bj4iafkd9eeSY1qtoWKa-170">
          <mxGeometry x="250" width="162" height="40" as="geometry">
            <mxRectangle width="162" height="40" as="alternateBounds" />
          </mxGeometry>
        </mxCell>
        <mxCell id="Bj4iafkd9eeSY1qtoWKa-175" value="27" style="shape=partialRectangle;html=1;whiteSpace=wrap;connectable=0;strokeColor=#ae4132;overflow=hidden;fillColor=#fad9d5;top=0;left=0;bottom=0;right=0;pointerEvents=1;" vertex="1" parent="Bj4iafkd9eeSY1qtoWKa-170">
          <mxGeometry x="412" width="48" height="40" as="geometry">
            <mxRectangle width="48" height="40" as="alternateBounds" />
          </mxGeometry>
        </mxCell>
        <mxCell id="Bj4iafkd9eeSY1qtoWKa-176" value="Goldenrod Stop" style="shape=partialRectangle;html=1;whiteSpace=wrap;connectable=0;strokeColor=inherit;overflow=hidden;fillColor=none;top=0;left=0;bottom=0;right=0;pointerEvents=1;" vertex="1" parent="Bj4iafkd9eeSY1qtoWKa-170">
          <mxGeometry x="460" width="155" height="40" as="geometry">
            <mxRectangle width="155" height="40" as="alternateBounds" />
          </mxGeometry>
        </mxCell>
        <mxCell id="Bj4iafkd9eeSY1qtoWKa-177" value="37" style="shape=partialRectangle;html=1;whiteSpace=wrap;connectable=0;strokeColor=#ae4132;overflow=hidden;fillColor=#fad9d5;top=0;left=0;bottom=0;right=0;pointerEvents=1;" vertex="1" parent="Bj4iafkd9eeSY1qtoWKa-170">
          <mxGeometry x="615" width="45" height="40" as="geometry">
            <mxRectangle width="45" height="40" as="alternateBounds" />
          </mxGeometry>
        </mxCell>
        <mxCell id="Bj4iafkd9eeSY1qtoWKa-178" value="Mimosa Stop" style="shape=partialRectangle;html=1;whiteSpace=wrap;connectable=0;strokeColor=inherit;overflow=hidden;fillColor=none;top=0;left=0;bottom=0;right=0;pointerEvents=1;" vertex="1" parent="Bj4iafkd9eeSY1qtoWKa-170">
          <mxGeometry x="660" width="160" height="40" as="geometry">
            <mxRectangle width="160" height="40" as="alternateBounds" />
          </mxGeometry>
        </mxCell>
        <mxCell id="Bj4iafkd9eeSY1qtoWKa-179" value="" style="shape=tableRow;horizontal=0;startSize=0;swimlaneHead=0;swimlaneBody=0;strokeColor=inherit;top=0;left=0;bottom=0;right=0;collapsible=0;dropTarget=0;fillColor=none;points=[[0,0.5],[1,0.5]];portConstraint=eastwest;" vertex="1" parent="Bj4iafkd9eeSY1qtoWKa-115">
          <mxGeometry y="274" width="820" height="40" as="geometry" />
        </mxCell>
        <mxCell id="Bj4iafkd9eeSY1qtoWKa-180" value="8" style="shape=partialRectangle;html=1;whiteSpace=wrap;connectable=0;strokeColor=#ae4132;overflow=hidden;fillColor=#fad9d5;top=0;left=0;bottom=0;right=0;pointerEvents=1;" vertex="1" parent="Bj4iafkd9eeSY1qtoWKa-179">
          <mxGeometry width="50" height="40" as="geometry">
            <mxRectangle width="50" height="40" as="alternateBounds" />
          </mxGeometry>
        </mxCell>
        <mxCell id="Bj4iafkd9eeSY1qtoWKa-181" value="Azalea Stop" style="shape=partialRectangle;html=1;whiteSpace=wrap;connectable=0;strokeColor=inherit;overflow=hidden;fillColor=none;top=0;left=0;bottom=0;right=0;pointerEvents=1;" vertex="1" parent="Bj4iafkd9eeSY1qtoWKa-179">
          <mxGeometry x="50" width="155" height="40" as="geometry">
            <mxRectangle width="155" height="40" as="alternateBounds" />
          </mxGeometry>
        </mxCell>
        <mxCell id="Bj4iafkd9eeSY1qtoWKa-182" value="18" style="shape=partialRectangle;html=1;whiteSpace=wrap;connectable=0;strokeColor=#ae4132;overflow=hidden;fillColor=#fad9d5;top=0;left=0;bottom=0;right=0;pointerEvents=1;" vertex="1" parent="Bj4iafkd9eeSY1qtoWKa-179">
          <mxGeometry x="205" width="45" height="40" as="geometry">
            <mxRectangle width="45" height="40" as="alternateBounds" />
          </mxGeometry>
        </mxCell>
        <mxCell id="Bj4iafkd9eeSY1qtoWKa-183" value="Morning Glory Stop" style="shape=partialRectangle;html=1;whiteSpace=wrap;connectable=0;strokeColor=inherit;overflow=hidden;fillColor=none;top=0;left=0;bottom=0;right=0;pointerEvents=1;" vertex="1" parent="Bj4iafkd9eeSY1qtoWKa-179">
          <mxGeometry x="250" width="162" height="40" as="geometry">
            <mxRectangle width="162" height="40" as="alternateBounds" />
          </mxGeometry>
        </mxCell>
        <mxCell id="Bj4iafkd9eeSY1qtoWKa-184" value="28" style="shape=partialRectangle;html=1;whiteSpace=wrap;connectable=0;strokeColor=#ae4132;overflow=hidden;fillColor=#fad9d5;top=0;left=0;bottom=0;right=0;pointerEvents=1;" vertex="1" parent="Bj4iafkd9eeSY1qtoWKa-179">
          <mxGeometry x="412" width="48" height="40" as="geometry">
            <mxRectangle width="48" height="40" as="alternateBounds" />
          </mxGeometry>
        </mxCell>
        <mxCell id="Bj4iafkd9eeSY1qtoWKa-185" value="Lupine Stop" style="shape=partialRectangle;html=1;whiteSpace=wrap;connectable=0;strokeColor=inherit;overflow=hidden;fillColor=none;top=0;left=0;bottom=0;right=0;pointerEvents=1;" vertex="1" parent="Bj4iafkd9eeSY1qtoWKa-179">
          <mxGeometry x="460" width="155" height="40" as="geometry">
            <mxRectangle width="155" height="40" as="alternateBounds" />
          </mxGeometry>
        </mxCell>
        <mxCell id="Bj4iafkd9eeSY1qtoWKa-186" value="38" style="shape=partialRectangle;html=1;whiteSpace=wrap;connectable=0;strokeColor=#ae4132;overflow=hidden;fillColor=#fad9d5;top=0;left=0;bottom=0;right=0;pointerEvents=1;" vertex="1" parent="Bj4iafkd9eeSY1qtoWKa-179">
          <mxGeometry x="615" width="45" height="40" as="geometry">
            <mxRectangle width="45" height="40" as="alternateBounds" />
          </mxGeometry>
        </mxCell>
        <mxCell id="Bj4iafkd9eeSY1qtoWKa-187" value="Yucca Stop" style="shape=partialRectangle;html=1;whiteSpace=wrap;connectable=0;strokeColor=inherit;overflow=hidden;fillColor=none;top=0;left=0;bottom=0;right=0;pointerEvents=1;" vertex="1" parent="Bj4iafkd9eeSY1qtoWKa-179">
          <mxGeometry x="660" width="160" height="40" as="geometry">
            <mxRectangle width="160" height="40" as="alternateBounds" />
          </mxGeometry>
        </mxCell>
        <mxCell id="Bj4iafkd9eeSY1qtoWKa-188" value="" style="shape=tableRow;horizontal=0;startSize=0;swimlaneHead=0;swimlaneBody=0;strokeColor=inherit;top=0;left=0;bottom=0;right=0;collapsible=0;dropTarget=0;fillColor=none;points=[[0,0.5],[1,0.5]];portConstraint=eastwest;" vertex="1" parent="Bj4iafkd9eeSY1qtoWKa-115">
          <mxGeometry y="314" width="820" height="40" as="geometry" />
        </mxCell>
        <mxCell id="Bj4iafkd9eeSY1qtoWKa-189" value="9" style="shape=partialRectangle;html=1;whiteSpace=wrap;connectable=0;strokeColor=#ae4132;overflow=hidden;fillColor=#fad9d5;top=0;left=0;bottom=0;right=0;pointerEvents=1;" vertex="1" parent="Bj4iafkd9eeSY1qtoWKa-188">
          <mxGeometry width="50" height="40" as="geometry">
            <mxRectangle width="50" height="40" as="alternateBounds" />
          </mxGeometry>
        </mxCell>
        <mxCell id="Bj4iafkd9eeSY1qtoWKa-190" value="Lavender Stop" style="shape=partialRectangle;html=1;whiteSpace=wrap;connectable=0;strokeColor=inherit;overflow=hidden;fillColor=none;top=0;left=0;bottom=0;right=0;pointerEvents=1;" vertex="1" parent="Bj4iafkd9eeSY1qtoWKa-188">
          <mxGeometry x="50" width="155" height="40" as="geometry">
            <mxRectangle width="155" height="40" as="alternateBounds" />
          </mxGeometry>
        </mxCell>
        <mxCell id="Bj4iafkd9eeSY1qtoWKa-191" value="19" style="shape=partialRectangle;html=1;whiteSpace=wrap;connectable=0;strokeColor=#ae4132;overflow=hidden;fillColor=#fad9d5;top=0;left=0;bottom=0;right=0;pointerEvents=1;" vertex="1" parent="Bj4iafkd9eeSY1qtoWKa-188">
          <mxGeometry x="205" width="45" height="40" as="geometry">
            <mxRectangle width="45" height="40" as="alternateBounds" />
          </mxGeometry>
        </mxCell>
        <mxCell id="Bj4iafkd9eeSY1qtoWKa-192" value="Heather Stop" style="shape=partialRectangle;html=1;whiteSpace=wrap;connectable=0;strokeColor=inherit;overflow=hidden;fillColor=none;top=0;left=0;bottom=0;right=0;pointerEvents=1;" vertex="1" parent="Bj4iafkd9eeSY1qtoWKa-188">
          <mxGeometry x="250" width="162" height="40" as="geometry">
            <mxRectangle width="162" height="40" as="alternateBounds" />
          </mxGeometry>
        </mxCell>
        <mxCell id="Bj4iafkd9eeSY1qtoWKa-193" value="29" style="shape=partialRectangle;html=1;whiteSpace=wrap;connectable=0;strokeColor=#ae4132;overflow=hidden;fillColor=#fad9d5;top=0;left=0;bottom=0;right=0;pointerEvents=1;" vertex="1" parent="Bj4iafkd9eeSY1qtoWKa-188">
          <mxGeometry x="412" width="48" height="40" as="geometry">
            <mxRectangle width="48" height="40" as="alternateBounds" />
          </mxGeometry>
        </mxCell>
        <mxCell id="Bj4iafkd9eeSY1qtoWKa-194" value="Poppy Stop" style="shape=partialRectangle;html=1;whiteSpace=wrap;connectable=0;strokeColor=inherit;overflow=hidden;fillColor=none;top=0;left=0;bottom=0;right=0;pointerEvents=1;" vertex="1" parent="Bj4iafkd9eeSY1qtoWKa-188">
          <mxGeometry x="460" width="155" height="40" as="geometry">
            <mxRectangle width="155" height="40" as="alternateBounds" />
          </mxGeometry>
        </mxCell>
        <mxCell id="Bj4iafkd9eeSY1qtoWKa-195" value="39" style="shape=partialRectangle;html=1;whiteSpace=wrap;connectable=0;strokeColor=#ae4132;overflow=hidden;fillColor=#fad9d5;top=0;left=0;bottom=0;right=0;pointerEvents=1;" vertex="1" parent="Bj4iafkd9eeSY1qtoWKa-188">
          <mxGeometry x="615" width="45" height="40" as="geometry">
            <mxRectangle width="45" height="40" as="alternateBounds" />
          </mxGeometry>
        </mxCell>
        <mxCell id="Bj4iafkd9eeSY1qtoWKa-196" value="Wisteria Stop" style="shape=partialRectangle;html=1;whiteSpace=wrap;connectable=0;strokeColor=inherit;overflow=hidden;fillColor=none;top=0;left=0;bottom=0;right=0;pointerEvents=1;" vertex="1" parent="Bj4iafkd9eeSY1qtoWKa-188">
          <mxGeometry x="660" width="160" height="40" as="geometry">
            <mxRectangle width="160" height="40" as="alternateBounds" />
          </mxGeometry>
        </mxCell>
        <mxCell id="Bj4iafkd9eeSY1qtoWKa-197" value="" style="shape=tableRow;horizontal=0;startSize=0;swimlaneHead=0;swimlaneBody=0;strokeColor=inherit;top=0;left=0;bottom=0;right=0;collapsible=0;dropTarget=0;fillColor=none;points=[[0,0.5],[1,0.5]];portConstraint=eastwest;" vertex="1" parent="Bj4iafkd9eeSY1qtoWKa-115">
          <mxGeometry y="354" width="820" height="40" as="geometry" />
        </mxCell>
        <mxCell id="Bj4iafkd9eeSY1qtoWKa-198" value="10" style="shape=partialRectangle;html=1;whiteSpace=wrap;connectable=0;strokeColor=#ae4132;overflow=hidden;fillColor=#fad9d5;top=0;left=0;bottom=0;right=0;pointerEvents=1;" vertex="1" parent="Bj4iafkd9eeSY1qtoWKa-197">
          <mxGeometry width="50" height="40" as="geometry">
            <mxRectangle width="50" height="40" as="alternateBounds" />
          </mxGeometry>
        </mxCell>
        <mxCell id="Bj4iafkd9eeSY1qtoWKa-199" value="Buttercup Stop" style="shape=partialRectangle;html=1;whiteSpace=wrap;connectable=0;strokeColor=inherit;overflow=hidden;fillColor=none;top=0;left=0;bottom=0;right=0;pointerEvents=1;" vertex="1" parent="Bj4iafkd9eeSY1qtoWKa-197">
          <mxGeometry x="50" width="155" height="40" as="geometry">
            <mxRectangle width="155" height="40" as="alternateBounds" />
          </mxGeometry>
        </mxCell>
        <mxCell id="Bj4iafkd9eeSY1qtoWKa-200" value="20" style="shape=partialRectangle;html=1;whiteSpace=wrap;connectable=0;strokeColor=#ae4132;overflow=hidden;fillColor=#fad9d5;top=0;left=0;bottom=0;right=0;pointerEvents=1;" vertex="1" parent="Bj4iafkd9eeSY1qtoWKa-197">
          <mxGeometry x="205" width="45" height="40" as="geometry">
            <mxRectangle width="45" height="40" as="alternateBounds" />
          </mxGeometry>
        </mxCell>
        <mxCell id="Bj4iafkd9eeSY1qtoWKa-201" value="Periwinkle Stop" style="shape=partialRectangle;html=1;whiteSpace=wrap;connectable=0;strokeColor=inherit;overflow=hidden;fillColor=none;top=0;left=0;bottom=0;right=0;pointerEvents=1;" vertex="1" parent="Bj4iafkd9eeSY1qtoWKa-197">
          <mxGeometry x="250" width="162" height="40" as="geometry">
            <mxRectangle width="162" height="40" as="alternateBounds" />
          </mxGeometry>
        </mxCell>
        <mxCell id="Bj4iafkd9eeSY1qtoWKa-202" value="30" style="shape=partialRectangle;html=1;whiteSpace=wrap;connectable=0;strokeColor=#ae4132;overflow=hidden;fillColor=#fad9d5;top=0;left=0;bottom=0;right=0;pointerEvents=1;" vertex="1" parent="Bj4iafkd9eeSY1qtoWKa-197">
          <mxGeometry x="412" width="48" height="40" as="geometry">
            <mxRectangle width="48" height="40" as="alternateBounds" />
          </mxGeometry>
        </mxCell>
        <mxCell id="Bj4iafkd9eeSY1qtoWKa-203" value="Gardenia Stop" style="shape=partialRectangle;html=1;whiteSpace=wrap;connectable=0;strokeColor=inherit;overflow=hidden;fillColor=none;top=0;left=0;bottom=0;right=0;pointerEvents=1;" vertex="1" parent="Bj4iafkd9eeSY1qtoWKa-197">
          <mxGeometry x="460" width="155" height="40" as="geometry">
            <mxRectangle width="155" height="40" as="alternateBounds" />
          </mxGeometry>
        </mxCell>
        <mxCell id="Bj4iafkd9eeSY1qtoWKa-204" value="40" style="shape=partialRectangle;html=1;whiteSpace=wrap;connectable=0;strokeColor=#ae4132;overflow=hidden;fillColor=#fad9d5;top=0;left=0;bottom=0;right=0;pointerEvents=1;" vertex="1" parent="Bj4iafkd9eeSY1qtoWKa-197">
          <mxGeometry x="615" width="45" height="40" as="geometry">
            <mxRectangle width="45" height="40" as="alternateBounds" />
          </mxGeometry>
        </mxCell>
        <mxCell id="Bj4iafkd9eeSY1qtoWKa-205" value="Columbine Stop" style="shape=partialRectangle;html=1;whiteSpace=wrap;connectable=0;strokeColor=inherit;overflow=hidden;fillColor=none;top=0;left=0;bottom=0;right=0;pointerEvents=1;" vertex="1" parent="Bj4iafkd9eeSY1qtoWKa-197">
          <mxGeometry x="660" width="160" height="40" as="geometry">
            <mxRectangle width="160" height="40" as="alternateBounds" />
          </mxGeometry>
        </mxCell>
        <mxCell id="Bj4iafkd9eeSY1qtoWKa-206" value="" style="endArrow=none;html=1;rounded=0;strokeWidth=5;fillColor=#647687;strokeColor=#314354;" edge="1" parent="1">
          <mxGeometry width="50" height="50" relative="1" as="geometry">
            <mxPoint x="950" y="460" as="sourcePoint" />
            <mxPoint x="1035" y="460" as="targetPoint" />
            <Array as="points">
              <mxPoint x="1025" y="460" />
            </Array>
          </mxGeometry>
        </mxCell>
        <mxCell id="Bj4iafkd9eeSY1qtoWKa-207" value="" style="endArrow=none;html=1;rounded=0;strokeWidth=5;fillColor=#60a917;strokeColor=#2D7600;" edge="1" parent="1">
          <mxGeometry width="50" height="50" relative="1" as="geometry">
            <mxPoint x="950" y="500" as="sourcePoint" />
            <mxPoint x="1035" y="500" as="targetPoint" />
            <Array as="points">
              <mxPoint x="1025" y="500" />
            </Array>
          </mxGeometry>
        </mxCell>
        <mxCell id="Bj4iafkd9eeSY1qtoWKa-208" value="" style="endArrow=none;html=1;rounded=0;strokeWidth=5;fillColor=#1ba1e2;strokeColor=#006EAF;" edge="1" parent="1">
          <mxGeometry width="50" height="50" relative="1" as="geometry">
            <mxPoint x="951" y="540" as="sourcePoint" />
            <mxPoint x="1036" y="540" as="targetPoint" />
            <Array as="points">
              <mxPoint x="1026" y="540" />
            </Array>
          </mxGeometry>
        </mxCell>
        <mxCell id="Bj4iafkd9eeSY1qtoWKa-209" value="" style="endArrow=none;html=1;rounded=0;strokeWidth=5;fillColor=#d80073;strokeColor=#A50040;" edge="1" parent="1">
          <mxGeometry width="50" height="50" relative="1" as="geometry">
            <mxPoint x="951" y="580" as="sourcePoint" />
            <mxPoint x="1036" y="580" as="targetPoint" />
            <Array as="points">
              <mxPoint x="1026" y="580" />
            </Array>
          </mxGeometry>
        </mxCell>
        <mxCell id="Bj4iafkd9eeSY1qtoWKa-210" value="Line 1" style="text;html=1;align=center;verticalAlign=middle;resizable=0;points=[];autosize=1;strokeColor=none;fillColor=none;" vertex="1" parent="1">
          <mxGeometry x="1033" y="445" width="60" height="30" as="geometry" />
        </mxCell>
        <mxCell id="Bj4iafkd9eeSY1qtoWKa-211" value="Line 2" style="text;html=1;align=center;verticalAlign=middle;resizable=0;points=[];autosize=1;strokeColor=none;fillColor=none;" vertex="1" parent="1">
          <mxGeometry x="1033" y="484" width="60" height="30" as="geometry" />
        </mxCell>
        <mxCell id="Bj4iafkd9eeSY1qtoWKa-212" value="Line 3" style="text;html=1;align=center;verticalAlign=middle;resizable=0;points=[];autosize=1;strokeColor=none;fillColor=none;" vertex="1" parent="1">
          <mxGeometry x="1033" y="524" width="60" height="30" as="geometry" />
        </mxCell>
        <mxCell id="Bj4iafkd9eeSY1qtoWKa-213" value="Line 4" style="text;html=1;align=center;verticalAlign=middle;resizable=0;points=[];autosize=1;strokeColor=none;fillColor=none;" vertex="1" parent="1">
          <mxGeometry x="1033" y="565" width="60" height="30" as="geometry" />
        </mxCell>
      </root>
    </mxGraphModel>
  </diagram>
</mxfile>
